<svg width="728" height="837" viewBox="0 0 728 837" fill="none" xmlns="http://www.w3.org/2000/svg">
<rect width="728" height="837" rx="18.5885" fill="#F1E4E4" fill-opacity="0.9"/>
<path fill-rule="evenodd" clip-rule="evenodd" d="M355.72 511.949C355.776 507.773 355.896 503.598 356.053 499.425C363.154 498.784 370.255 498.142 377.356 497.501C379.17 497.337 380.983 497.174 382.796 497.01C384.764 496.832 386.732 496.654 388.7 496.476C388.905 496.458 389.181 496.453 389.489 496.448C390.469 496.432 391.765 496.41 392.057 495.917C392.483 495.195 392.265 493.294 392.1 491.853C392.034 491.278 391.977 490.777 391.972 490.453C391.943 488.656 391.915 486.859 391.887 485.063C391.859 483.265 391.831 481.469 391.802 479.672L391.802 479.644C391.595 466.431 391.388 453.218 391.181 440.005C392.882 440.061 394.582 440.112 396.282 440.16C397.384 440.191 398.487 440.224 399.591 440.258C405.894 440.447 412.215 440.638 418.511 440.444C422.222 440.33 425.738 439.326 429.241 438.142C431.103 437.513 432.947 436.827 434.776 436.106C434.944 436.04 435.207 435.902 435.51 435.743C436.248 435.355 437.227 434.841 437.667 434.926C438.414 435.071 439.52 436.676 440.331 437.855C440.63 438.288 440.889 438.664 441.075 438.887C443.279 441.535 445.483 444.183 447.687 446.831L447.783 446.945C448.062 447.281 448.38 447.622 448.705 447.97C449.42 448.737 450.167 449.538 450.605 450.393C450.938 451.044 451.123 451.861 451.298 452.64C451.382 453.008 451.463 453.367 451.556 453.696C455.192 466.439 458.748 479.264 461.396 492.256C461.966 495.052 462.507 497.867 462.824 500.706C462.848 500.922 462.878 501.155 462.91 501.397C463.082 502.728 463.297 504.38 462.782 505.527C462.137 506.961 460.149 507.608 458.72 508.075C458.627 508.105 458.536 508.135 458.448 508.163C455.654 509.086 452.728 509.635 449.833 510.127C442.859 511.314 435.797 512.003 428.749 512.561C427.946 512.625 427.135 512.664 426.322 512.704C424.954 512.77 423.581 512.837 422.239 513.019C421.671 513.096 421.513 513.046 421.43 513.103C421.363 513.149 421.344 513.265 421.201 513.57C420.89 514.234 420.938 515.396 420.978 516.395C420.997 516.837 421.013 517.248 420.997 517.568C420.934 518.795 420.871 520.023 420.809 521.25C420.746 522.477 420.684 523.704 420.621 524.932C420.279 531.626 419.937 538.321 419.595 545.015C419.48 547.278 419.364 549.54 419.248 551.803C419.017 556.328 418.786 560.853 418.555 565.378C418.491 566.63 418.427 567.882 418.363 569.134C418.296 570.454 418.228 571.773 418.161 573.093C418.138 573.539 418.145 574.026 418.152 574.527C418.166 575.572 418.181 576.674 417.932 577.573C417.796 578.066 417.836 578.247 417.768 578.309C417.697 578.375 417.509 578.312 416.88 578.343C414.975 578.435 413.024 578.311 411.089 578.189C410.128 578.127 409.171 578.067 408.225 578.033C406.664 577.977 405.104 577.921 403.544 577.865C401.87 577.805 400.196 577.745 398.522 577.685C398.295 577.677 398.063 577.686 397.835 577.696C397.132 577.725 396.475 577.752 396.193 577.25C395.873 576.679 395.951 575.403 396.013 574.384C396.039 573.96 396.063 573.581 396.053 573.315L395.784 565.767L395.045 545.046C394.883 540.505 394.72 535.964 394.559 531.422C394.384 526.544 394.21 521.665 394.036 516.786C390.442 517.512 386.847 518.237 383.253 518.962L383.246 518.964C377.931 520.036 372.616 521.109 367.301 522.18C366.644 522.313 365.953 522.492 365.246 522.675C363.329 523.17 361.29 523.697 359.452 523.433C356.952 523.073 355.918 522.002 355.778 519.623C355.643 517.339 355.676 515.039 355.709 512.75C355.712 512.483 355.716 512.216 355.72 511.949ZM428.246 471.512L427.354 469.789L426.966 471.691L423.187 490.222L423.007 491.106L423.905 491.046L436.835 490.187L437.882 490.117L437.399 489.184L428.246 471.512ZM424.711 489.615L427.922 473.869L435.698 488.885L424.711 489.615Z" fill="#B8FF7F" fill-opacity="0.22"/>
<path fill-rule="evenodd" clip-rule="evenodd" d="M535.646 321.539C535.382 323.6 535.57 325.847 533.249 326.391C531.102 326.894 528.745 326.753 526.556 326.929C524.095 327.127 521.642 327.398 519.186 327.642C516.09 327.95 516.532 326.756 515.855 324.105C515.236 321.685 514.249 319.269 513.428 316.908C513.047 315.811 512.591 314.801 512.071 313.767C511.599 312.83 511.823 311.557 511.315 310.77C509.582 308.085 501.129 315.427 500.343 313.98C501.774 312.863 504.25 311.614 504.688 309.704C505.204 307.458 503.781 306.788 501.993 307.609C497.593 309.63 492.515 311.209 487.716 311.946C489.268 310.906 503.305 302.708 498.594 300.276C497.533 299.728 496.115 300.76 495.157 301.15C493.637 301.769 492.05 302.185 490.463 302.591C488.792 303.019 487.116 303.43 485.435 303.819C484.256 304.092 482.155 305.061 481.006 304.822C479.84 304.579 481.906 303.853 482.244 303.682C483.719 302.937 485.17 302.137 486.61 301.326C489.164 299.887 491.524 298.221 493.467 295.997C494.933 294.319 497.354 290.654 496.333 288.334C495.742 286.988 494.446 285.745 493.684 284.471C492.795 282.983 492.077 281.396 491.305 279.845C492.597 280.415 494.048 280.561 495.367 281.072C496.686 281.584 498.026 281.998 499.399 282.379C502.152 283.142 504.897 283.277 507.626 283.896C510.715 284.596 513.933 285.379 517.071 285.784C519.803 286.136 522.26 286.886 524.601 288.379C529.382 291.43 532.698 295.813 534.375 301.233C535.358 304.408 535.597 307.721 535.713 311.025C535.835 314.508 536.091 318.071 535.646 321.539ZM508.816 321.795C505.478 324.235 501.586 326.142 498.004 328.218C495.954 329.405 493.86 330.515 491.769 331.628C490.285 332.417 488.482 333.871 486.849 334.276C485.815 334.533 485.893 334.552 485.239 333.608C484.614 332.706 484.068 331.734 483.483 330.805C482.404 329.093 481.316 327.386 480.227 325.68C477.786 321.855 475.35 318.031 472.786 314.287C470.213 310.531 467.746 306.705 465.253 302.895C464.095 301.124 462.943 299.346 461.715 297.624C460.776 296.308 458.369 294.302 459.512 292.754C460.574 291.315 462.992 290.12 464.422 289.031C466.17 287.702 467.928 286.386 469.671 285.05C473.418 282.178 477.067 279.18 480.811 276.304C483.988 281.892 487.726 287.13 491.496 292.324C488.086 294.506 484.642 296.579 481.049 298.447C478.396 299.826 474.336 301.69 472.661 304.306C471.009 306.883 472.631 309.855 475.574 309.902C477.334 309.931 479.089 309.463 480.814 309.196C482.06 309.003 484.334 308.103 485.457 308.738C483.439 310.029 476.115 313.793 480.063 317.093C482.885 319.451 487.655 316.009 490.704 316.718C489.775 318.506 488.809 321.357 491.388 322.329C493.534 323.139 496.343 321.63 498.275 320.831C499.671 320.253 501.057 319.655 502.43 319.024C503.521 318.523 504.828 317.505 505.994 317.289C507.355 317.036 510.125 320.838 508.816 321.795ZM446.756 453.565C448.666 453.216 449.647 452.424 450.248 454.75C450.787 456.832 451.321 458.839 452.016 460.883C449.032 461.141 446.4 462.569 444.224 464.579C442.675 466.01 439.594 469.427 440.358 471.824C442.213 477.65 451.587 464.581 452.701 463.184C454.065 465.182 454.566 467.798 455.243 470.084C455.726 471.71 457.516 474.827 455.15 475.223C451.827 475.778 445.594 477.018 445.988 481.736C446.454 487.304 453.519 487.273 457.483 487.523C459.717 487.664 459.728 489.459 460.046 491.469C460.188 492.367 460.633 493.582 459.872 494.239C459.196 494.823 457.127 494.84 456.248 495.029C453.684 495.58 451.122 496.143 448.559 496.694C445.649 497.32 444.11 496.443 441.39 495.644C440.383 495.348 439.371 495.473 439.297 494.343C439.251 493.649 439.929 492.576 440.15 491.89C441.028 489.175 441.776 486.38 442.028 483.529C442.395 479.387 441.936 473.176 436.85 472.368C434.429 471.983 433.964 471.858 432.871 469.58C431.689 467.118 429.813 464.837 430.267 462C430.595 459.944 430.041 456.055 431.35 454.35C431.955 453.561 433.134 453.091 433.939 452.513C434.965 451.775 435.953 450.985 436.908 450.159C437.713 449.465 438.693 448.107 439.604 447.606C440.718 446.992 440.752 447.41 441.552 448.368C442.733 449.782 444.61 453.958 446.756 453.565ZM452.155 462.769C451.493 464.108 449.963 465.354 448.989 466.472C448.009 467.596 447.081 468.785 445.988 469.804C444.784 470.926 440.511 473.636 441.452 469.988C442.185 467.151 444.927 464.853 447.34 463.437C447.807 463.163 453.275 460.502 452.155 462.769ZM456.83 476.276C457.253 478.175 457.482 480.133 457.843 482.045C458.028 483.023 459.054 485.386 458.636 486.326C457.928 487.92 451.552 486.033 450.23 485.485C447.084 484.179 445.64 480.827 448.541 478.439C449.641 477.535 456.406 474.378 456.83 476.276ZM461.01 499.084C461.365 500.897 462.404 502.578 460.686 503.949C459.26 505.087 456.924 505.863 455.167 506.268C452.771 506.82 452.002 505.475 450.734 503.744C449.371 501.883 447.919 500.085 446.414 498.338C451.142 497.276 455.87 496.215 460.599 495.154C460.596 496.475 460.756 497.79 461.01 499.084ZM449.68 507.498C447.214 507.371 444.562 508.114 442.061 508.31C438.938 508.555 435.824 508.911 432.698 509.12C433.499 506.559 434.937 504.274 436.062 501.854C437.191 499.426 437.984 499.163 440.58 498.976C442.986 498.802 444.684 497.972 446.459 500.019C448.307 502.147 449.98 504.461 451.667 506.717C451.093 507.102 450.408 507.536 449.68 507.498ZM432.055 508.021C431.446 508.466 429.57 507.202 428.938 506.958C427.708 506.481 427.435 506.327 426.794 505.125C426.242 504.091 425.365 502.916 425.192 501.735C424.964 500.179 425.651 498.13 425.901 496.584C426.567 498.194 428.752 498.381 430.229 498.644C431.346 498.843 434.654 498.526 435.496 499.323C436.427 500.204 434.714 502.661 434.268 503.587C433.735 504.691 433.077 507.274 432.055 508.021ZM430.863 509.298C430.131 509.417 428.023 510.147 428.065 508.806C428.113 507.274 431.012 508.927 430.863 509.298ZM427.15 509.218C427.016 510.507 424.248 510.4 424.185 509.266C424.077 507.349 427.362 507.158 427.15 509.218ZM423.985 474.439C423.277 476.46 418.967 477.183 417.312 477.805C415.8 478.373 411.285 480.996 409.726 480.045C415.002 476.409 420.408 472.846 424.879 468.204C425.062 469.35 424.783 470.308 424.446 471.394C424.142 472.374 424.298 473.544 423.985 474.439ZM422.673 481.808C421.913 486.758 421.168 491.773 420.141 496.673C418.183 496.073 416.569 494.858 414.511 494.434C412.634 494.048 410.696 494.038 408.803 494.32C404.77 494.922 401.175 496.922 397.656 498.871C397.331 495.477 396.658 491.844 396.738 488.438C396.804 485.608 401.633 484.77 403.824 483.601C405.149 482.894 406.347 481.9 407.857 481.653C409.411 481.399 410.91 481.407 412.445 480.932C416.073 479.81 419.488 478.03 423.043 476.703C423.334 478.402 422.93 480.134 422.673 481.808ZM419.282 502.756C419.121 503.881 419.324 505.889 418.469 506.747C417.664 507.555 415.944 507.581 414.882 507.8C411.647 508.467 408.415 509.141 405.185 509.829C403.739 510.137 402.294 510.432 400.842 510.707C400.15 510.838 398.414 511.503 397.831 510.951C397.278 510.427 397.69 508.752 397.72 508.048C397.78 506.645 397.859 505.236 397.77 503.832C397.602 501.138 397.752 500.106 400.253 498.712C402.909 497.231 405.653 496.217 408.644 495.668C411.671 495.113 414.556 495.417 417.438 496.582C418.24 496.906 419.442 497.306 419.816 498.173C420.323 499.352 419.453 501.561 419.282 502.756ZM415.64 546.181C414.454 546.927 411.874 546.8 410.512 546.951C408.312 547.195 406.099 547.056 403.914 546.715C402.269 546.46 399.814 546.105 398.554 544.947C396.762 543.302 398.83 543.226 400.2 543.342C404.185 543.678 408.22 543.444 412.202 543.155C412.977 543.099 415.06 542.417 415.807 542.736C416.763 543.144 416.47 545.659 415.64 546.181ZM413.38 572.766C405.956 572.043 401.651 565.879 398.959 559.577C397.514 556.194 398.035 552.644 397.892 549.066C397.866 548.412 397.457 546.791 398.127 546.303C398.756 545.844 401.304 547.262 401.992 547.431C405.524 548.299 409.43 548.382 412.969 547.539C414.502 547.174 415.36 546.495 415.848 548.019C416.24 549.246 415.596 551.506 415.526 552.792C415.405 555.016 415.752 572.997 413.38 572.766ZM398.548 572.773C398.52 571.694 397.977 560.782 398.504 560.749C400.07 564.137 401.679 567.167 404.531 569.66C405.988 570.934 407.626 572.081 409.447 572.765C410.132 573.022 414.01 573.217 414.2 574.068C414.532 575.558 411.885 574.957 411.1 574.836C410.469 574.738 409.903 574.469 409.285 574.356C408.107 574.142 406.994 574.43 405.811 574.454C404.014 574.491 402.249 574.302 400.451 574.458C398.808 574.6 398.592 574.411 398.548 572.773ZM399.645 523.831C406.001 521.771 411.312 525.672 414.667 530.778C416.579 533.69 417.007 535.726 416.673 539.173C416.553 540.408 416.774 541.243 415.642 541.746C414.522 542.244 411.978 541.875 410.765 541.932C407.28 542.095 403.807 542.312 400.322 542.104C398.058 541.97 397.738 541.586 397.777 539.382C397.824 536.729 397.604 534.089 397.454 531.432C397.292 528.557 396.308 524.912 399.645 523.831ZM397.565 520.01C397.568 518.061 397.452 516.061 397.571 514.115C397.689 512.186 398.508 512.282 400.324 511.953C404.258 511.239 408.187 510.441 412.068 509.475C413.603 509.093 415.337 508.359 416.937 508.353C418.615 508.347 418.525 509.212 418.413 510.701C418.165 514.001 417.562 517.252 417.379 520.534C417.181 524.076 417.077 527.665 417.093 531.211C417.098 532.408 417.389 533.294 416.371 532.174C415.352 531.052 414.853 529.264 413.943 528.002C412.079 525.42 409.309 523.343 406.235 522.468C404.535 521.985 402.748 521.901 401.015 522.251C400.489 522.357 397.855 523.617 397.52 523.368C397.294 523.2 397.564 520.089 397.565 520.01ZM420.817 587.562C423.338 589.372 426.13 590.834 428.956 592.104C430.546 592.818 436.841 594.321 437.042 595.929C437.149 596.787 436.106 597.748 435.422 597.85C434.556 597.978 433.128 597.411 432.245 597.303C429.034 596.913 425.831 596.91 422.698 596.014C416.444 594.225 409.96 593.721 403.641 592.16C402.138 591.79 400.631 591.442 399.12 591.105C397.684 590.786 397.041 590.841 396.991 589.303C396.879 585.927 397.844 582.469 397.852 579.052C402.964 579.636 408.094 579.629 413.22 580.11C415.416 580.317 415.365 580.734 416.328 582.658C417.327 584.655 419.027 586.276 420.817 587.562ZM395.892 477.895C395.828 476.645 395.777 475.392 395.664 474.146C395.589 473.309 394.826 470.969 395.256 470.317C395.767 469.542 396.282 470.015 397.196 469.993C398.401 469.965 399.41 469.479 400.404 468.843C402.286 467.639 403.685 466.055 404.907 464.206C405.981 462.579 405.781 460.355 405.768 458.407C405.734 453.368 406.1 448.453 405.794 443.392C405.653 441.067 407.632 442.493 409.23 442.794C411.845 443.286 414.686 442.945 417.343 442.952C417.244 443.571 411.811 445.11 410.933 445.695C408.686 447.194 407.376 449.591 407.581 452.324C407.993 457.822 414.033 458.741 418.445 458.751C414.784 461.997 411.189 465.092 408.311 469.096C406.189 472.049 402.452 477.87 405.921 481.136C402.855 482.882 399.816 484.825 396.348 485.665C396.193 483.075 396.026 480.486 395.892 477.895ZM394.5 377.529C395.749 378.333 396.273 377.197 397.223 376.608C398.561 375.778 399.004 375.86 399.174 374.008C399.488 370.573 398.047 367.463 396.237 364.652C395.414 363.374 394.594 361.852 393.433 360.854C392.374 359.943 391.304 360.257 390.324 359.315C389.939 358.945 390.021 358.423 389.385 358.437C388.966 358.447 387.947 359.749 387.601 360.037C386.508 360.944 385.17 361.635 383.737 360.886C381.651 359.797 382.321 355.844 383.941 354.563C385.189 353.577 386.664 353.729 388.084 353.57C389.149 353.451 389.371 353.497 388.933 352.275C388.626 351.419 387.918 350.752 387.568 349.914C386.896 348.307 387.043 346.353 386.752 344.652C386.492 343.128 385.882 341.479 385.904 339.931C385.933 337.96 386.575 337.448 388.279 336.895C389.929 336.359 391.296 335.179 392.701 334.188C394.292 333.065 396.035 332.324 397.67 331.299C398.78 330.603 399.496 329.196 400.717 329.853C402.167 330.634 403.701 332.895 404.934 334.05C403.129 335.199 402.71 335.701 402.958 337.95C403.187 340.011 403.605 341.848 405.177 343.284C405.781 343.836 406.907 344.278 407.375 344.914C407.921 345.655 407.566 345.002 407.497 345.838C407.46 346.29 407.104 346.585 407.181 347.106C407.528 349.423 410.182 348.056 411.276 347.251C415.184 344.376 407.887 342.092 406.154 341.045C404.957 340.321 404.365 338.011 406.261 338.625C407.523 339.033 410.372 342.493 410.661 339.339C413.789 341.161 415.72 345.031 418.342 347.478C420.233 349.243 422.774 351.201 421.273 354.019C419.36 357.612 415.566 359.243 412.103 360.793C408.744 362.296 409.442 366.551 411.237 369.155C412.275 370.66 413.635 371.543 415.272 372.274C416.943 373.022 417.29 373.9 417.655 375.634C418.061 377.557 417.63 378.332 415.969 379.326C414.347 380.297 412.651 381.237 410.92 381.996C407.175 383.639 403.291 383.743 399.309 384.303C397.913 384.499 396.575 384.908 395.813 383.52C394.957 381.959 394.894 379.27 394.5 377.529ZM393.898 370.058C392.961 369.562 390.699 371.207 389.514 371.279C387.597 371.396 386.339 371.352 384.638 372.371C381.421 374.298 378.752 376.779 376.173 379.469C373.269 382.499 370.381 385.545 367.486 388.584C366.173 389.961 364.854 391.33 363.522 392.686C362.471 393.755 361.444 395.258 360.144 396.02C360.212 395.115 360.766 394.473 360.962 393.634C361.077 393.143 360.877 392.726 360.951 392.256C360.975 392.103 361.384 391.573 361.446 391.399C361.612 390.94 361.815 390.486 362.012 390.009C362.196 389.564 362.169 389.102 362.355 388.637C362.547 388.158 363.072 387.841 363.254 387.369C363.788 385.987 362.904 385.346 361.491 385.379C362.044 382.614 362.286 381.261 365.169 380.287C367.924 379.355 370.615 378.309 373.145 376.854C375.392 375.562 377.266 373.699 379.426 372.259C381.359 370.969 383.767 369.618 383.747 366.973C384.843 367.719 385.87 368.347 387.124 367.604C388.183 366.978 388.323 366.473 389.547 366.355C390.546 366.259 391.165 366.233 392.056 366.674C393.105 367.192 393.249 367.552 393.86 366.027C394.554 366.613 396.309 369.053 396.25 370.019C396.218 370.552 396.138 370.792 395.48 370.932C394.548 371.131 394.584 370.42 393.898 370.058ZM389.528 514.504C389.072 515.204 387.149 515.075 386.407 515.066C384.143 515.036 383.352 513.132 382.359 511.292C380.794 508.39 378.454 502.363 381.022 499.318C383.049 496.915 386.998 499.943 388.381 501.758C389.575 503.326 389.22 505.678 389.331 507.56C389.425 509.146 390.429 513.121 389.528 514.504ZM383.345 515.555C382.44 516.462 379.503 516.27 378.304 516.465C376.164 516.812 374.036 517.229 371.96 517.863C370.414 518.335 368.887 519.604 368.479 517.444C368.137 515.628 368.308 513.449 368.34 511.617C368.375 509.639 368.582 507.686 368.753 505.718C368.869 504.386 368.579 501.937 369.663 500.915C370.597 500.034 372.868 499.95 374.081 499.658C376.073 499.179 378.154 498.55 380.224 498.764C379.016 502.051 378.913 505.498 380.208 508.774C380.578 509.709 383.903 514.994 383.345 515.555ZM368.125 502.46C367.62 507.404 367.113 512.38 367.599 517.349C367.628 517.645 367.982 519.003 367.828 519.215C367.669 519.435 366.412 519.549 366.127 519.616C364.994 519.886 363.862 520.171 362.721 520.411C360.502 520.876 360.212 519.47 359.776 517.407C358.843 512.987 360.652 508.196 361.748 503.951C362.282 501.884 362.678 501.645 364.705 501.474C366.116 501.355 368.34 500.359 368.125 502.46ZM359.553 520.906C358.705 521.68 357.857 518.03 357.782 517.657C357.485 516.18 357.65 514.682 357.655 513.182C357.662 510.838 357.483 508.505 357.479 506.173C357.478 504.911 356.535 502.332 358.024 501.664C358.461 501.469 360.197 501.55 360.59 501.808C361.409 502.344 361.086 502.69 360.844 503.622C360.301 505.714 359.831 507.816 359.359 509.924C358.895 511.992 358.438 513.982 358.658 516.117C358.731 516.823 360.093 520.413 359.553 520.906ZM386.608 497.869C388.676 497.285 388.786 498.873 388.783 500.394C388.468 500.152 385.529 498.174 386.608 497.869ZM358.946 386.266C358.439 387.103 355.229 387.332 354.312 387.552C352.508 387.985 350.703 388.416 348.903 388.867C345.532 389.712 342.243 390.666 338.787 391.108C340.685 388.061 341.275 385.43 340.922 381.628C340.477 376.828 339.91 372.076 338.808 367.377C337.721 362.743 336.463 358.141 335.252 353.538C334.656 351.277 334.013 349.059 333.221 346.859C332.587 345.095 331.595 342.875 332.672 341.067C335.406 343.067 337.599 345.222 339.158 348.26C340.829 351.516 342.287 354.859 344.226 357.975C345.112 359.399 346.148 360.698 347.096 362.077C347.66 362.897 348.071 364.081 348.789 364.773C349.618 365.571 350.501 365.947 350.975 364.601C351.482 363.156 349.862 360.298 349.384 358.942C348.229 355.667 347.083 352.398 346.193 349.039C345.472 346.324 344.281 343.041 344.702 340.176C345.12 337.339 347.039 339.369 348.011 340.688C350.013 343.407 351.212 346.576 352.527 349.658C353.737 352.49 355.147 355.19 356.485 357.956C356.95 358.918 357.564 361.405 358.783 361.691C360.555 362.107 360.405 359.605 360.236 358.59C359.112 351.858 356.18 345.413 355.572 338.565C355.543 338.238 355.119 335.694 355.46 335.481C356.12 335.069 357.012 337.65 357.297 338.283C358.78 341.572 359.812 345.04 360.759 348.514C361.565 351.47 362.294 354.447 363.198 357.375C363.695 358.983 364.265 360.565 364.826 362.153C365.334 363.59 365.85 366.047 367.175 366.994C369.054 368.338 375.78 365.143 376.462 368C376.947 370.03 370.71 371.665 369.382 372.282C367.633 373.094 365.918 373.982 364.169 374.795C362.844 375.409 360.941 375.662 359.983 376.818C358.968 378.043 358.805 379.764 358.775 381.283C358.752 382.434 359.547 385.273 358.946 386.266ZM354.695 408.437C354.606 409.075 354.1 409.92 353.872 410.527C353.409 411.764 353.015 413.243 352.371 414.399C351.817 415.394 350.998 416.284 350.463 417.294C349.955 418.253 349.887 419.359 349.294 420.318C348.614 421.416 347.492 422.204 346.818 423.294C346.486 423.832 346.142 424.447 345.673 425.019C344.01 427.048 342.359 428.962 341.021 431.135C340.679 431.692 339.008 434.121 338.344 434.252C336.953 434.526 338.571 432.545 338.843 432.135C340.813 429.172 342.562 426.052 344.462 423.043C346.304 420.129 348.188 417.238 349.96 414.28C351.405 411.869 352.404 408.407 354.753 406.709C354.762 407.286 354.743 407.862 354.695 408.437ZM418.91 381.203C420.054 385.919 421.422 390.488 422.711 395.161C423.908 399.497 425.5 404.137 425.997 408.607C426.488 413.035 427.617 417.515 429.135 421.718C429.837 423.663 430.559 425.615 431.321 427.537C431.74 428.593 432.208 429.625 432.683 430.657C433.052 431.458 434.027 432.755 434.064 433.604C434.094 434.284 434.329 434.012 433.66 434.523C432.967 435.052 431.767 434.86 430.96 434.953C428.855 435.198 426.802 435.992 424.75 436.506C420.792 437.498 416.074 438.285 412.019 437.595C410.313 437.304 408.541 437.053 406.854 436.674C404.778 436.209 404.352 435.348 403.926 433.302C402.994 428.831 402.192 424.37 401.422 419.869C400.508 414.514 399.518 409.166 398.812 403.778C398.099 398.328 397.587 392.872 396.469 387.481C400.976 388.236 405.22 389.09 409.74 387.852C413.743 386.756 416.632 384.612 418.91 381.203ZM436.551 439.58C437.559 441.662 435.13 443.533 433.954 445.137C432.402 447.251 430.952 449.459 429.147 451.371C428.605 449.198 428.13 446.754 426.685 444.969C424.84 442.691 422.686 443.622 420.425 442.544C422.796 441.387 425.824 441.829 428.339 440.798C430.82 439.781 433.325 438.982 435.633 437.661C435.94 438.3 436.242 438.941 436.551 439.58ZM427.758 488.155C426.243 488.239 427.257 485.035 427.355 484.239C427.626 482.05 427.899 479.862 428.136 477.67C429.386 480.975 430.636 484.281 431.886 487.586C430.512 487.783 429.147 488.077 427.758 488.155ZM425.293 504.001C425.5 504.462 426.464 505.997 425.703 506.28C424.66 506.668 424.534 504.125 425.293 504.001ZM423.485 468.39C418.658 472.254 413.864 476.129 408.641 479.456C407.497 480.184 406.344 480.489 405.586 479.044C404.99 477.907 405.619 476.627 406.002 475.515C406.977 472.678 408.676 470.212 410.558 467.903C414.318 463.293 418.793 459.356 424.503 457.538C425.438 457.24 426.88 456.343 427.207 457.582C427.4 458.311 426.584 460.131 426.419 460.815C425.737 463.64 425.886 466.47 423.485 468.39ZM437.381 496.572C437.488 499.853 428.541 497.207 427.426 496.62C428.596 496.227 437.333 495.097 437.381 496.572ZM440.703 496.593C441.235 496.735 443.273 496.915 442.512 497.614C441.83 498.239 438.744 497.988 437.926 498.065C438.476 496.255 438.893 496.11 440.703 496.593ZM439.046 492.197C438.846 492.928 438.764 494.041 438.112 494.541C437.299 495.165 435.571 494.786 434.651 494.791C433.088 494.799 431.527 494.88 429.972 495.035C429.376 495.095 426.966 495.823 426.408 495.326C425.998 494.961 426.151 493.249 426.449 492.864C427.062 492.073 428.473 492.347 429.357 492.315C432.592 492.199 435.809 492.19 439.046 492.197ZM436.969 480.069C436.513 479.388 436.431 479.396 436.236 478.368C436.028 477.268 435.498 476.327 435.187 475.264C434.502 472.926 436.69 473.133 438.296 473.991C442.461 476.216 441.456 483.99 440.426 487.63C438.929 486.526 438.376 486.025 437.861 484.244C437.665 483.567 437.445 482.902 437.242 482.23C437.092 481.734 437.196 480.408 436.969 480.069ZM437.33 442.232C438.492 442.091 439.556 445.709 439.224 446.492C438.544 448.093 435.946 449.524 434.623 450.546C433.742 451.227 432.867 452.007 431.925 452.6C431.051 453.151 430.548 452.842 429.735 453.106C428.559 453.488 428.274 454.736 427.07 455.272C425.376 456.027 423.323 456.238 421.554 456.92C419.407 457.747 417.439 457.769 415.188 457.377C411.951 456.814 408.156 455.204 408.449 451.26C408.963 444.302 422.745 440.736 426.504 446.636C427.482 448.172 427.467 449.962 428.102 451.612C428.79 453.397 429.457 452.695 430.492 451.381C431.846 449.66 433.103 447.847 434.404 446.086C434.825 445.517 436.49 442.335 437.33 442.232ZM352.864 509.982C352.798 511.165 352.869 512.365 352.458 513.495C352.045 514.633 351.206 515.554 350.724 516.661C349.744 518.904 349.752 521.617 349.791 524.02C349.882 529.612 351.203 535.043 351.901 540.568C349.576 540.562 347.173 540.588 344.919 539.922C342.907 539.326 342.585 537.852 342.016 535.993C340.418 530.773 338.691 525.576 338.175 520.109C337.93 517.504 337.827 514.878 337.709 512.264C337.607 509.972 338.12 508.972 340.184 507.837C344.671 505.369 349.322 503.315 353.762 500.73C353.308 503.796 353.037 506.887 352.864 509.982ZM544.399 326.778C543.307 326.576 542.204 326.451 541.102 326.319C540.527 326.25 538.735 326.346 538.304 325.97C537.791 325.523 538.679 322.14 538.724 321.414C539.001 317.049 538.679 312.55 538.28 308.201C537.557 300.329 535.088 293.036 529.391 287.368C526.556 284.546 523.368 282.308 519.495 281.228C517.239 280.598 514.914 280.262 512.653 279.652C510.829 279.159 509.127 278.595 507.232 278.4C503.453 278.01 499.998 276.578 496.31 275.75C493.597 275.14 489.232 273.695 487.473 276.767C486.089 275.139 484.696 273.916 482.949 272.701C481.277 271.538 481.003 270.376 478.955 271.719C474.975 274.33 471.247 277.514 467.53 280.484C464.058 283.258 460.698 286.163 457.06 288.714C453.349 291.316 454.053 295.731 455.798 299.391C459.081 306.281 464.145 312.171 468.578 318.077C471.355 321.777 474.141 325.481 476.906 329.188C479.55 332.731 481.837 336.832 484.927 340.015C486.875 342.022 489.2 339.398 490.958 338.185C493.14 336.679 495.283 335.117 497.468 333.616C502.017 330.488 506.885 327.559 511.688 324.836C512.037 325.829 512.386 326.822 512.735 327.815C511.681 327.894 510.256 327.658 509.719 328.795C508.952 330.419 510.834 330.632 511.164 331.563C511.459 332.394 510.25 334.591 509.893 335.34C509.089 337.029 507.967 338.484 506.73 339.874C501.84 345.374 495.65 349.309 489.37 353.059C482.65 357.071 475.448 359.521 468.091 362.106C464.35 363.421 460.467 364.032 456.606 364.873C452.887 365.685 449.17 366.75 445.369 367.056C437.592 367.682 429.339 368.151 421.656 366.469C420.815 366.285 419.925 365.887 419.07 365.811C418.384 365.75 417.876 366.038 417.229 366.076C415.838 366.155 415.041 364.909 413.937 366.067C413.384 366.646 413.375 367.619 412.604 366.538C411.625 365.162 414.129 364.896 415.057 364.504C418.181 363.185 420.692 360.529 422.678 357.843C424.661 355.16 424.946 352.295 423.739 349.153C422.531 346.013 419.785 343.885 417.723 341.335C416.726 340.1 415.808 338.794 414.713 337.641C414.129 337.025 413.187 336.436 413.15 335.815C413.108 335.093 413.539 334.735 413.281 333.857C413.214 333.629 412.928 333.499 412.868 333.249C412.771 332.849 412.92 332.506 412.87 332.117C412.754 331.224 412.405 330.663 411.91 329.931C411.603 329.474 411.152 328.559 410.728 328.216C409.985 327.616 408.972 327.861 408.217 327.252C407.022 326.289 406.602 324.261 405.545 323.093C404.057 321.448 403.739 323.11 402.163 322.586C400.814 322.137 400.83 320.103 399.741 319.415C398.206 318.446 396.914 320.229 395.551 320.626C393.758 321.148 394.447 319.12 392.849 318.935C391.406 318.769 389.407 321.703 388.688 322.746C387.954 321.889 387.153 320.429 385.833 320.952C384.449 321.501 384.202 324.057 383.19 324.969C382.837 325.286 382.912 325.519 382.478 325.666C381.918 325.854 381.171 325.038 380.447 325.287C378.985 325.788 379.163 327.744 379.161 329.011C377.436 328.758 376.234 328.629 375.656 330.492C375.091 332.316 374.877 331.511 373.059 332.104C371.492 332.614 371.272 334.106 371.014 335.566C370.854 336.473 371.002 336.844 371.245 337.671C371.553 338.713 371.553 338.701 371.052 339.695C370.179 341.431 370.127 343.344 369.987 345.254C369.839 347.292 369.484 349.148 370.062 351.139C370.419 352.371 370.446 354.047 371.65 354.737C372.127 355.011 372.938 354.861 373.344 355.132C374.119 355.65 373.884 356.438 374.4 357.194C374.787 357.76 375.411 357.815 375.845 358.274C376.316 358.773 376.344 359.382 376.613 359.991C377.407 361.796 378.155 362.669 375.564 362.772C373.966 362.836 372.262 363.316 370.67 363.169C368.792 362.996 368.325 361.943 367.727 360.34C364.714 352.263 363.095 343.509 359.127 335.829C358.256 334.142 354.68 327.253 353.168 332.273C351.893 336.506 353.566 341.673 354.207 345.887C352.195 344.069 351.451 340.794 349.923 338.575C348.795 336.935 345.262 332.908 343.191 335.215C341.559 337.034 341.966 340.891 342.268 343.065C342.743 346.506 343.84 349.821 344.623 353.195C343.637 351.902 343.151 350.323 342.466 348.866C341.608 347.04 340.538 345.308 339.318 343.703C338.252 342.301 337.06 340.998 335.767 339.802C334.779 338.888 333.01 336.887 331.607 336.779C327.996 336.501 329.132 343.142 329.681 345.04C330.822 348.976 332.057 352.802 332.942 356.816C334.672 364.659 336.767 372.321 338.041 380.264C338.323 382.025 338.663 383.431 337.969 385.124C337.356 386.615 336.721 388.399 335.592 389.545C333.035 392.142 330.912 394.915 329.001 398.044C326.954 401.396 324.846 404.786 323.176 408.343C322.407 409.98 321.779 411.751 320.895 413.325C320.098 414.746 319.14 415.869 318.573 417.442C315.865 424.96 313.86 432.346 312.942 440.306C312.188 446.842 312.891 455.535 320.761 457.064C324.376 457.767 327.622 456.16 330.882 454.833C334.254 453.461 336.692 451.23 339.443 448.86C342.86 445.914 346.408 443.151 349.862 440.255C353.317 437.357 356.509 434.143 359.946 431.214C363.34 428.32 366.411 425.247 369.346 421.887C372.258 418.554 374.624 414.861 377.443 411.481C377.432 415.857 376.785 420.193 376.603 424.563C376.437 428.57 376.433 432.573 376.594 436.578C376.755 440.58 375.701 444.39 375.692 448.384C375.683 452.28 375.529 456.153 375.444 460.045C375.406 461.791 375.064 463.749 375.715 465.433C376.201 466.691 377.728 467.084 379.03 467.423C381.044 467.947 387.1 466.938 387.999 469.095C388.49 470.271 387.996 472.413 388.034 473.714C388.098 475.856 388.176 477.999 388.249 480.141C388.325 482.353 388.399 484.566 388.479 486.778C388.551 488.727 388.929 490.899 388.695 492.829C388.494 494.483 387.532 494.266 386.008 494.351C383.707 494.479 381.406 494.581 379.104 494.682C375.727 494.83 372.203 494.762 368.966 495.162C367.606 495.33 366.121 495.258 364.687 495.532C362.888 495.875 361.227 495.962 359.402 496.052C357.932 496.125 356.041 496.018 354.885 497.108C354.485 497.487 354.395 497.938 354.111 498.358C353.578 499.147 353.875 498.939 353.001 499.117C349.59 499.81 346.35 500.591 343.015 501.757C341.345 502.34 339.795 503.124 338.118 503.673C336.648 504.154 335.57 504.746 334.843 506.193C333.545 508.778 333.874 512.517 333.968 515.302C334.116 519.647 335.079 523.784 336.117 527.987C337.197 532.359 338.044 536.848 340.146 540.864C340.836 542.184 341.581 543.868 342.992 544.556C344.812 545.444 347.613 544.906 349.6 544.909C350.933 544.911 354.506 545.371 355.503 544.249C356.468 543.164 355.497 540.102 355.361 538.754C354.883 534.032 354.023 529.267 354.035 524.513C355.123 526.124 357.009 528.906 358.897 526.437C359.361 525.829 359.18 525.547 360.005 525.195C360.461 525 361.423 524.88 361.92 524.914C362.596 524.96 362.846 525.232 363.467 525.099C364.017 524.981 364.635 524.487 365.265 524.337C373.08 522.475 380.848 520.468 388.696 518.809C390.77 518.37 390.476 519.967 390.613 521.766C390.764 523.755 390.475 525.764 390.75 527.731C390.99 529.443 391.176 531.11 390.839 532.832C390.441 534.863 390.697 536.557 391.094 538.568C392.62 546.322 392.347 554.733 392.691 562.614C392.87 566.719 392.486 570.91 392.871 574.993C393.016 576.535 393.875 577.387 394.223 578.79C394.622 580.401 393.533 582.452 393.201 584.012C392.535 587.144 391.366 591.627 393.505 594.353C394.661 595.825 396.176 596.038 397.887 596.536C399.934 597.131 401.952 597.826 404.008 598.39C411.524 600.453 419.645 600.856 427.347 601.993C429.233 602.271 430.983 602.245 432.881 602.113C434.051 602.032 436.933 602.417 437.905 601.715C438.427 601.34 438.163 600.869 438.428 600.41C438.804 599.757 439.26 599.492 439.9 599.086C440.961 598.414 442.188 598.021 442.368 596.633C442.805 593.234 438.568 591.433 436.303 589.963C433.408 588.084 429.911 587.359 426.838 585.825C425.143 584.979 423.508 584.02 421.874 583.06C421.166 582.644 419.73 582.173 419.237 581.517C418.733 580.849 419.226 579.894 419.435 578.938C420.296 574.989 420.005 570.952 420.45 566.961C420.896 562.964 420.775 558.943 420.921 554.925C421.073 550.788 421.414 546.661 421.675 542.529C421.916 538.714 422.159 534.837 422.199 531.017C422.237 527.475 422.719 524 422.833 520.435C422.871 519.225 422.655 517.03 423.456 516.006C424.159 515.107 426.485 515.22 427.571 515.062C430.496 514.637 433.28 514.263 436.172 514.006C443.054 513.396 450.712 512.946 457.219 510.541C459.903 509.549 463.474 508.195 464.365 505.105C465.389 501.553 464.052 497.188 464.008 493.556C463.96 489.679 462.839 485.896 461.999 482.139C461.093 478.095 460.523 473.981 459.545 469.952C458.648 466.255 457.192 462.981 455.815 459.471C455.257 458.047 452.077 453.142 453.063 451.932C453.595 451.281 455.509 451.116 456.285 450.817C457.959 450.176 459.636 449.445 461.179 448.531C463.239 447.31 467.751 445.29 467.959 442.577C468.157 439.985 465.616 437.364 464.324 435.328C462.243 432.047 459.618 429.178 457.636 425.832C453.63 419.07 450.445 411.663 447.524 404.376C445.996 400.563 445.497 396.973 445.246 392.904C449.682 392.914 454.198 393.461 458.606 392.839C463.403 392.162 468.207 391.022 472.963 390.083C481.623 388.371 489.938 386.439 497.96 382.585C505.473 378.977 513.096 375.027 519.316 369.299C522.532 366.337 525.813 363.319 528.59 359.932C531.444 356.452 533.59 352.499 535.792 348.593C538.221 344.282 540.155 339.751 541.684 335.035C541.992 334.087 541.993 332.879 542.387 331.984C542.831 330.973 543.639 330.946 544.482 330.414C545.669 329.664 546.459 327.157 544.399 326.778Z" fill="black" fill-opacity="0.22"/>
<path fill-rule="evenodd" clip-rule="evenodd" d="M441.112 278.515C442.127 279.388 446.498 282.465 447.909 281.717C449.651 280.793 446.894 278.011 446.151 277.325C445.206 276.452 441.829 273.812 440.537 274.057C437.953 274.548 440.2 277.728 441.112 278.515Z" fill="black" fill-opacity="0.22"/>
<path fill-rule="evenodd" clip-rule="evenodd" d="M443.271 310.095C443.844 308.964 445.368 308.549 446.073 307.455C446.921 306.139 447.31 304.988 446.998 303.375C444.828 304.107 442.359 306.324 440.907 308.058C439.693 309.507 437.969 312.534 441.136 312.542C441.109 312.111 441.081 311.679 441.053 311.249C442.003 311.387 442.84 310.947 443.271 310.095Z" fill="black" fill-opacity="0.22"/>
<path fill-rule="evenodd" clip-rule="evenodd" d="M432.933 291.283C434.332 291.686 435.487 291.629 436.916 291.661C437.953 291.684 439.371 292.256 440.212 291.611C439.466 291.178 440.408 291.154 440.224 290.732C440.069 290.38 439.774 290.495 439.535 290.21C438.681 289.195 437.938 289.207 436.584 288.996C435.535 288.831 433.992 288.452 432.984 288.975C431.923 289.526 431.512 290.874 432.933 291.283Z" fill="black" fill-opacity="0.22"/>
<path fill-rule="evenodd" clip-rule="evenodd" d="M452.848 322.432C453.753 321.671 454.739 319.468 454.922 318.332C454.994 317.886 454.674 317.545 454.712 317.218C454.785 316.593 456.065 315.386 454.724 314.873C453.551 314.425 452.448 317.91 452.15 318.67C451.845 319.448 451.012 320.963 451.267 321.715C451.479 322.339 452.237 322.945 452.848 322.432Z" fill="black" fill-opacity="0.22"/>
<path fill-rule="evenodd" clip-rule="evenodd" d="M463.672 275.262C464.491 274.5 465.009 273.636 464.924 272.589C464.857 271.763 464.241 268.918 463.547 269.002C461.243 269.281 462.279 276.559 463.672 275.262Z" fill="black" fill-opacity="0.22"/>
<path fill-rule="evenodd" clip-rule="evenodd" d="M415.044 402.466C414.855 401.77 414.166 397.516 412.974 397.806C412.069 398.026 413.009 401.769 413.051 402.262C413.14 403.292 411.164 403.258 410.246 403.119C408.79 402.899 408.908 402.043 408.689 400.717C408.608 400.215 408.293 397.949 407.25 398.779C406.545 399.34 407.048 402.134 407.107 402.772C407.31 404.98 407.549 408.752 408.859 410.757C409.381 411.557 409.851 411.952 410.399 410.926C410.954 409.888 409.698 406.724 409.478 405.662C410.514 405.764 413.498 405.427 414.122 406.506C414.692 407.491 413.78 410.306 415.609 410.534C416.694 410.67 416.497 409.41 416.393 408.441C416.174 406.408 415.579 404.429 415.044 402.466Z" fill="black" fill-opacity="0.22"/>
<path fill-rule="evenodd" clip-rule="evenodd" d="M417.823 401.481C416.622 402.025 418.13 409.958 419.888 409.703C421.939 409.403 418.968 400.963 417.823 401.481Z" fill="black" fill-opacity="0.22"/>
<path fill-rule="evenodd" clip-rule="evenodd" d="M416.484 398.855C416.336 400.641 418.651 401.306 418.761 399.365C418.845 397.868 416.64 396.977 416.484 398.855Z" fill="black" fill-opacity="0.22"/>
<path fill-rule="evenodd" clip-rule="evenodd" d="M403.777 351.498C404.834 355.447 414.454 357.127 413.158 351.801C412.509 349.135 409.798 351.504 407.905 351.193C406.681 350.993 403.033 348.713 403.777 351.498Z" fill="black" fill-opacity="0.22"/>
<path fill-rule="evenodd" clip-rule="evenodd" d="M401.361 344.454C401.814 342.341 397.204 340.009 395.53 340.59C393.083 341.442 393.094 346.885 394.961 348.332C395.206 348.522 395.959 348.976 396.328 348.614C396.91 348.042 396.274 348.198 396.138 347.626C395.923 346.717 395.218 345.551 395.92 344.516C397.247 342.563 400.713 347.482 401.361 344.454Z" fill="black" fill-opacity="0.22"/>
<path fill-rule="evenodd" clip-rule="evenodd" d="M387.304 354.71C385.642 354.617 384.279 357.204 386.724 356.987C387.193 356.945 388.199 356.827 388.47 356.334C388.92 355.517 388.035 354.752 387.304 354.71Z" fill="black" fill-opacity="0.22"/>
<path fill-rule="evenodd" clip-rule="evenodd" d="M467.942 293.045C467.372 292.22 466.18 290.892 465.154 291.72C464.244 292.454 464.403 294.265 464.752 295.166C465.691 297.589 467.909 299.748 470.419 298.351C469.547 296.6 469.056 294.661 467.942 293.045Z" fill="black" fill-opacity="0.22"/>
<path d="M263.773 299H262.364C262.28 298.595 262.134 298.239 261.926 297.932C261.722 297.625 261.472 297.367 261.176 297.159C260.884 296.947 260.561 296.788 260.205 296.682C259.848 296.576 259.477 296.523 259.091 296.523C258.386 296.523 257.748 296.701 257.176 297.057C256.608 297.413 256.155 297.938 255.818 298.631C255.485 299.324 255.318 300.174 255.318 301.182C255.318 302.189 255.485 303.04 255.818 303.733C256.155 304.426 256.608 304.951 257.176 305.307C257.748 305.663 258.386 305.841 259.091 305.841C259.477 305.841 259.848 305.788 260.205 305.682C260.561 305.576 260.884 305.419 261.176 305.21C261.472 304.998 261.722 304.739 261.926 304.432C262.134 304.121 262.28 303.765 262.364 303.364H263.773C263.667 303.958 263.473 304.491 263.193 304.96C262.913 305.43 262.564 305.83 262.148 306.159C261.731 306.485 261.263 306.733 260.744 306.903C260.229 307.074 259.678 307.159 259.091 307.159C258.098 307.159 257.216 306.917 256.443 306.432C255.67 305.947 255.063 305.258 254.619 304.364C254.176 303.47 253.955 302.409 253.955 301.182C253.955 299.955 254.176 298.894 254.619 298C255.063 297.106 255.67 296.417 256.443 295.932C257.216 295.447 258.098 295.205 259.091 295.205C259.678 295.205 260.229 295.29 260.744 295.46C261.263 295.631 261.731 295.881 262.148 296.21C262.564 296.536 262.913 296.934 263.193 297.403C263.473 297.869 263.667 298.402 263.773 299ZM267.209 301.75V307H265.868V295.364H267.209V299.636H267.322C267.527 299.186 267.834 298.828 268.243 298.562C268.656 298.294 269.205 298.159 269.891 298.159C270.485 298.159 271.006 298.278 271.453 298.517C271.9 298.752 272.247 299.114 272.493 299.602C272.743 300.087 272.868 300.705 272.868 301.455V307H271.527V301.545C271.527 300.852 271.347 300.316 270.987 299.938C270.631 299.555 270.137 299.364 269.504 299.364C269.065 299.364 268.671 299.456 268.322 299.642C267.978 299.828 267.705 300.098 267.504 300.455C267.307 300.811 267.209 301.242 267.209 301.75ZM277.889 307.205C277.336 307.205 276.834 307.1 276.384 306.892C275.933 306.68 275.575 306.375 275.31 305.977C275.045 305.576 274.912 305.091 274.912 304.523C274.912 304.023 275.01 303.617 275.207 303.307C275.404 302.992 275.668 302.746 275.997 302.568C276.327 302.39 276.69 302.258 277.088 302.17C277.49 302.08 277.893 302.008 278.298 301.955C278.829 301.886 279.259 301.835 279.588 301.801C279.921 301.763 280.164 301.701 280.315 301.614C280.471 301.527 280.548 301.375 280.548 301.159V301.114C280.548 300.553 280.395 300.117 280.088 299.807C279.785 299.496 279.325 299.341 278.707 299.341C278.067 299.341 277.565 299.481 277.202 299.761C276.838 300.042 276.582 300.341 276.435 300.659L275.162 300.205C275.389 299.674 275.692 299.261 276.071 298.966C276.454 298.667 276.87 298.458 277.321 298.341C277.776 298.22 278.223 298.159 278.662 298.159C278.942 298.159 279.264 298.193 279.628 298.261C279.995 298.326 280.349 298.46 280.69 298.665C281.035 298.869 281.321 299.178 281.548 299.591C281.776 300.004 281.889 300.557 281.889 301.25V307H280.548V305.818H280.48C280.389 306.008 280.238 306.21 280.026 306.426C279.813 306.642 279.531 306.826 279.179 306.977C278.827 307.129 278.397 307.205 277.889 307.205ZM278.094 306C278.624 306 279.071 305.896 279.435 305.688C279.802 305.479 280.079 305.21 280.264 304.881C280.454 304.551 280.548 304.205 280.548 303.841V302.614C280.491 302.682 280.366 302.744 280.173 302.801C279.984 302.854 279.764 302.902 279.514 302.943C279.268 302.981 279.027 303.015 278.793 303.045C278.562 303.072 278.374 303.095 278.23 303.114C277.882 303.159 277.556 303.233 277.253 303.335C276.954 303.434 276.711 303.583 276.526 303.784C276.344 303.981 276.253 304.25 276.253 304.591C276.253 305.057 276.425 305.409 276.77 305.648C277.118 305.883 277.56 306 278.094 306ZM288.132 298.273V299.409H283.609V298.273H288.132ZM284.928 296.182H286.268V304.5C286.268 304.879 286.323 305.163 286.433 305.352C286.547 305.538 286.691 305.663 286.865 305.727C287.043 305.788 287.231 305.818 287.428 305.818C287.575 305.818 287.696 305.811 287.791 305.795C287.886 305.777 287.962 305.761 288.018 305.75L288.291 306.955C288.2 306.989 288.073 307.023 287.911 307.057C287.748 307.095 287.541 307.114 287.291 307.114C286.912 307.114 286.541 307.032 286.178 306.869C285.818 306.706 285.518 306.458 285.28 306.125C285.045 305.792 284.928 305.371 284.928 304.864V296.182ZM292.149 305.409L292.058 306.023C291.994 306.455 291.895 306.917 291.763 307.409C291.634 307.902 291.5 308.366 291.359 308.801C291.219 309.237 291.104 309.583 291.013 309.841H289.99C290.039 309.598 290.104 309.278 290.183 308.881C290.263 308.483 290.342 308.038 290.422 307.545C290.505 307.057 290.573 306.557 290.626 306.045L290.695 305.409H292.149ZM299.315 307V295.364H303.384C304.194 295.364 304.863 295.504 305.389 295.784C305.916 296.061 306.308 296.434 306.565 296.903C306.823 297.369 306.952 297.886 306.952 298.455C306.952 298.955 306.863 299.367 306.685 299.693C306.51 300.019 306.279 300.277 305.991 300.466C305.707 300.655 305.399 300.795 305.065 300.886V301C305.421 301.023 305.779 301.148 306.139 301.375C306.499 301.602 306.8 301.928 307.043 302.352C307.285 302.777 307.406 303.295 307.406 303.909C307.406 304.492 307.274 305.017 307.009 305.483C306.743 305.949 306.325 306.318 305.753 306.591C305.181 306.864 304.437 307 303.52 307H299.315ZM300.724 305.75H303.52C304.44 305.75 305.094 305.572 305.48 305.216C305.87 304.856 306.065 304.42 306.065 303.909C306.065 303.515 305.965 303.152 305.764 302.818C305.563 302.481 305.277 302.212 304.906 302.011C304.535 301.807 304.096 301.705 303.588 301.705H300.724V305.75ZM300.724 300.477H303.338C303.762 300.477 304.145 300.394 304.486 300.227C304.83 300.061 305.103 299.826 305.304 299.523C305.509 299.22 305.611 298.864 305.611 298.455C305.611 297.943 305.433 297.509 305.077 297.153C304.721 296.794 304.156 296.614 303.384 296.614H300.724V300.477ZM315.04 303.432V298.273H316.381V307H315.04V305.523H314.949C314.744 305.966 314.426 306.343 313.994 306.653C313.563 306.96 313.017 307.114 312.358 307.114C311.812 307.114 311.328 306.994 310.903 306.756C310.479 306.513 310.146 306.15 309.903 305.665C309.661 305.176 309.54 304.561 309.54 303.818V298.273H310.881V303.727C310.881 304.364 311.059 304.871 311.415 305.25C311.775 305.629 312.233 305.818 312.79 305.818C313.123 305.818 313.462 305.733 313.807 305.562C314.155 305.392 314.447 305.131 314.682 304.778C314.92 304.426 315.04 303.977 315.04 303.432ZM319.7 310.273C319.473 310.273 319.27 310.254 319.092 310.216C318.914 310.182 318.791 310.148 318.723 310.114L319.064 308.932C319.39 309.015 319.678 309.045 319.928 309.023C320.178 309 320.399 308.888 320.592 308.688C320.789 308.491 320.969 308.17 321.132 307.727L321.382 307.045L318.155 298.273H319.609L322.018 305.227H322.109L324.518 298.273H325.973L322.268 308.273C322.102 308.723 321.895 309.097 321.649 309.392C321.403 309.691 321.117 309.913 320.791 310.057C320.469 310.201 320.106 310.273 319.7 310.273ZM334.811 307.205C334.258 307.205 333.756 307.1 333.305 306.892C332.855 306.68 332.497 306.375 332.232 305.977C331.966 305.576 331.834 305.091 331.834 304.523C331.834 304.023 331.932 303.617 332.129 303.307C332.326 302.992 332.589 302.746 332.919 302.568C333.249 302.39 333.612 302.258 334.01 302.17C334.411 302.08 334.815 302.008 335.22 301.955C335.75 301.886 336.18 301.835 336.51 301.801C336.843 301.763 337.086 301.701 337.237 301.614C337.393 301.527 337.47 301.375 337.47 301.159V301.114C337.47 300.553 337.317 300.117 337.01 299.807C336.707 299.496 336.247 299.341 335.629 299.341C334.989 299.341 334.487 299.481 334.124 299.761C333.76 300.042 333.504 300.341 333.357 300.659L332.084 300.205C332.311 299.674 332.614 299.261 332.993 298.966C333.375 298.667 333.792 298.458 334.243 298.341C334.697 298.22 335.144 298.159 335.584 298.159C335.864 298.159 336.186 298.193 336.55 298.261C336.917 298.326 337.271 298.46 337.612 298.665C337.957 298.869 338.243 299.178 338.47 299.591C338.697 300.004 338.811 300.557 338.811 301.25V307H337.47V305.818H337.402C337.311 306.008 337.16 306.21 336.947 306.426C336.735 306.642 336.453 306.826 336.101 306.977C335.749 307.129 335.319 307.205 334.811 307.205ZM335.016 306C335.546 306 335.993 305.896 336.357 305.688C336.724 305.479 337 305.21 337.186 304.881C337.375 304.551 337.47 304.205 337.47 303.841V302.614C337.413 302.682 337.288 302.744 337.095 302.801C336.906 302.854 336.686 302.902 336.436 302.943C336.19 302.981 335.949 303.015 335.714 303.045C335.483 303.072 335.296 303.095 335.152 303.114C334.804 303.159 334.478 303.233 334.175 303.335C333.875 303.434 333.633 303.583 333.447 303.784C333.266 303.981 333.175 304.25 333.175 304.591C333.175 305.057 333.347 305.409 333.692 305.648C334.04 305.883 334.482 306 335.016 306ZM342.599 301.75V307H341.259V298.273H342.554V299.636H342.668C342.872 299.193 343.183 298.837 343.599 298.568C344.016 298.295 344.554 298.159 345.213 298.159C345.804 298.159 346.321 298.28 346.764 298.523C347.207 298.761 347.552 299.125 347.798 299.614C348.045 300.098 348.168 300.712 348.168 301.455V307H346.827V301.545C346.827 300.86 346.649 300.326 346.293 299.943C345.937 299.557 345.448 299.364 344.827 299.364C344.399 299.364 344.016 299.456 343.679 299.642C343.346 299.828 343.082 300.098 342.889 300.455C342.696 300.811 342.599 301.242 342.599 301.75ZM353.913 307.182C353.186 307.182 352.544 306.998 351.987 306.631C351.43 306.259 350.995 305.737 350.68 305.062C350.366 304.384 350.209 303.583 350.209 302.659C350.209 301.742 350.366 300.947 350.68 300.273C350.995 299.598 351.432 299.078 351.993 298.71C352.554 298.343 353.201 298.159 353.936 298.159C354.504 298.159 354.953 298.254 355.283 298.443C355.616 298.629 355.87 298.841 356.044 299.08C356.222 299.314 356.36 299.508 356.459 299.659H356.572V295.364H357.913V307H356.618V305.659H356.459C356.36 305.818 356.22 306.019 356.038 306.261C355.857 306.5 355.597 306.714 355.26 306.903C354.923 307.089 354.474 307.182 353.913 307.182ZM354.095 305.977C354.633 305.977 355.088 305.837 355.459 305.557C355.83 305.273 356.112 304.881 356.305 304.381C356.499 303.877 356.595 303.295 356.595 302.636C356.595 301.985 356.5 301.415 356.311 300.926C356.122 300.434 355.841 300.051 355.47 299.778C355.099 299.502 354.641 299.364 354.095 299.364C353.527 299.364 353.054 299.509 352.675 299.801C352.3 300.089 352.018 300.481 351.828 300.977C351.643 301.47 351.55 302.023 351.55 302.636C351.55 303.258 351.644 303.822 351.834 304.33C352.027 304.833 352.311 305.235 352.686 305.534C353.065 305.83 353.535 305.977 354.095 305.977ZM374.601 299H373.192C373.108 298.595 372.963 298.239 372.754 297.932C372.55 297.625 372.3 297.367 372.004 297.159C371.713 296.947 371.389 296.788 371.033 296.682C370.677 296.576 370.305 296.523 369.919 296.523C369.214 296.523 368.576 296.701 368.004 297.057C367.436 297.413 366.983 297.938 366.646 298.631C366.313 299.324 366.146 300.174 366.146 301.182C366.146 302.189 366.313 303.04 366.646 303.733C366.983 304.426 367.436 304.951 368.004 305.307C368.576 305.663 369.214 305.841 369.919 305.841C370.305 305.841 370.677 305.788 371.033 305.682C371.389 305.576 371.713 305.419 372.004 305.21C372.3 304.998 372.55 304.739 372.754 304.432C372.963 304.121 373.108 303.765 373.192 303.364H374.601C374.495 303.958 374.302 304.491 374.021 304.96C373.741 305.43 373.393 305.83 372.976 306.159C372.559 306.485 372.091 306.733 371.572 306.903C371.057 307.074 370.506 307.159 369.919 307.159C368.927 307.159 368.044 306.917 367.271 306.432C366.499 305.947 365.891 305.258 365.447 304.364C365.004 303.47 364.783 302.409 364.783 301.182C364.783 299.955 365.004 298.894 365.447 298C365.891 297.106 366.499 296.417 367.271 295.932C368.044 295.447 368.927 295.205 369.919 295.205C370.506 295.205 371.057 295.29 371.572 295.46C372.091 295.631 372.559 295.881 372.976 296.21C373.393 296.536 373.741 296.934 374.021 297.403C374.302 297.869 374.495 298.402 374.601 299ZM380.241 307.182C379.454 307.182 378.762 306.994 378.168 306.619C377.577 306.244 377.115 305.72 376.781 305.045C376.452 304.371 376.287 303.583 376.287 302.682C376.287 301.773 376.452 300.979 376.781 300.301C377.115 299.623 377.577 299.097 378.168 298.722C378.762 298.347 379.454 298.159 380.241 298.159C381.029 298.159 381.719 298.347 382.31 298.722C382.904 299.097 383.366 299.623 383.696 300.301C384.029 300.979 384.196 301.773 384.196 302.682C384.196 303.583 384.029 304.371 383.696 305.045C383.366 305.72 382.904 306.244 382.31 306.619C381.719 306.994 381.029 307.182 380.241 307.182ZM380.241 305.977C380.84 305.977 381.332 305.824 381.719 305.517C382.105 305.21 382.391 304.807 382.577 304.307C382.762 303.807 382.855 303.265 382.855 302.682C382.855 302.098 382.762 301.555 382.577 301.051C382.391 300.547 382.105 300.14 381.719 299.83C381.332 299.519 380.84 299.364 380.241 299.364C379.643 299.364 379.151 299.519 378.764 299.83C378.378 300.14 378.092 300.547 377.906 301.051C377.721 301.555 377.628 302.098 377.628 302.682C377.628 303.265 377.721 303.807 377.906 304.307C378.092 304.807 378.378 305.21 378.764 305.517C379.151 305.824 379.643 305.977 380.241 305.977ZM387.584 301.75V307H386.243V298.273H387.538V299.636H387.652C387.857 299.193 388.167 298.837 388.584 298.568C389 298.295 389.538 298.159 390.197 298.159C390.788 298.159 391.305 298.28 391.749 298.523C392.192 298.761 392.536 299.125 392.783 299.614C393.029 300.098 393.152 300.712 393.152 301.455V307H391.811V301.545C391.811 300.86 391.633 300.326 391.277 299.943C390.921 299.557 390.432 299.364 389.811 299.364C389.383 299.364 389 299.456 388.663 299.642C388.33 299.828 388.067 300.098 387.874 300.455C387.68 300.811 387.584 301.242 387.584 301.75ZM396.943 301.75V307H395.602V298.273H396.898V299.636H397.011C397.216 299.193 397.527 298.837 397.943 298.568C398.36 298.295 398.898 298.159 399.557 298.159C400.148 298.159 400.665 298.28 401.108 298.523C401.551 298.761 401.896 299.125 402.142 299.614C402.388 300.098 402.511 300.712 402.511 301.455V307H401.17V301.545C401.17 300.86 400.992 300.326 400.636 299.943C400.28 299.557 399.792 299.364 399.17 299.364C398.742 299.364 398.36 299.456 398.023 299.642C397.689 299.828 397.426 300.098 397.233 300.455C397.04 300.811 396.943 301.242 396.943 301.75ZM408.621 307.182C407.78 307.182 407.054 306.996 406.445 306.625C405.839 306.25 405.371 305.727 405.041 305.057C404.715 304.383 404.553 303.598 404.553 302.705C404.553 301.811 404.715 301.023 405.041 300.341C405.371 299.655 405.829 299.121 406.416 298.739C407.007 298.352 407.696 298.159 408.484 298.159C408.939 298.159 409.388 298.235 409.831 298.386C410.274 298.538 410.678 298.784 411.041 299.125C411.405 299.462 411.695 299.909 411.911 300.466C412.126 301.023 412.234 301.708 412.234 302.523V303.091H405.507V301.932H410.871C410.871 301.439 410.772 301 410.575 300.614C410.382 300.227 410.106 299.922 409.746 299.699C409.39 299.475 408.969 299.364 408.484 299.364C407.95 299.364 407.488 299.496 407.098 299.761C406.712 300.023 406.414 300.364 406.206 300.784C405.998 301.205 405.893 301.655 405.893 302.136V302.909C405.893 303.568 406.007 304.127 406.234 304.585C406.465 305.04 406.786 305.386 407.195 305.625C407.604 305.86 408.079 305.977 408.621 305.977C408.973 305.977 409.291 305.928 409.575 305.83C409.863 305.727 410.111 305.576 410.32 305.375C410.528 305.17 410.689 304.917 410.803 304.614L412.098 304.977C411.962 305.417 411.732 305.803 411.411 306.136C411.089 306.466 410.691 306.723 410.217 306.909C409.744 307.091 409.212 307.182 408.621 307.182ZM417.82 307.182C417.001 307.182 416.297 306.989 415.706 306.602C415.115 306.216 414.661 305.684 414.342 305.006C414.024 304.328 413.865 303.553 413.865 302.682C413.865 301.795 414.028 301.013 414.354 300.335C414.683 299.653 415.142 299.121 415.729 298.739C416.32 298.352 417.009 298.159 417.797 298.159C418.411 298.159 418.964 298.273 419.456 298.5C419.948 298.727 420.352 299.045 420.666 299.455C420.981 299.864 421.176 300.341 421.251 300.886H419.911C419.808 300.489 419.581 300.136 419.229 299.83C418.88 299.519 418.411 299.364 417.82 299.364C417.297 299.364 416.839 299.5 416.445 299.773C416.054 300.042 415.75 300.422 415.53 300.915C415.314 301.403 415.206 301.977 415.206 302.636C415.206 303.311 415.312 303.898 415.524 304.398C415.74 304.898 416.043 305.286 416.433 305.562C416.827 305.839 417.289 305.977 417.82 305.977C418.168 305.977 418.484 305.917 418.768 305.795C419.053 305.674 419.293 305.5 419.49 305.273C419.687 305.045 419.827 304.773 419.911 304.455H421.251C421.176 304.97 420.988 305.434 420.689 305.847C420.393 306.256 420.001 306.581 419.513 306.824C419.028 307.062 418.464 307.182 417.82 307.182ZM427.007 298.273V299.409H422.484V298.273H427.007ZM423.803 296.182H425.143V304.5C425.143 304.879 425.198 305.163 425.308 305.352C425.422 305.538 425.566 305.663 425.74 305.727C425.918 305.788 426.106 305.818 426.303 305.818C426.45 305.818 426.571 305.811 426.666 305.795C426.761 305.777 426.837 305.761 426.893 305.75L427.166 306.955C427.075 306.989 426.948 307.023 426.786 307.057C426.623 307.095 426.416 307.114 426.166 307.114C425.787 307.114 425.416 307.032 425.053 306.869C424.693 306.706 424.393 306.458 424.155 306.125C423.92 305.792 423.803 305.371 423.803 304.864V296.182Z" fill="#707991"/>
</svg>
