<svg width="27" height="25" viewBox="0 0 27 25" fill="none" xmlns="http://www.w3.org/2000/svg">
<path fill-rule="evenodd" clip-rule="evenodd" d="M17.5914 13.7243C17.5914 11.4644 15.7588 9.63184 13.4989 9.63184C11.2391 9.63184 9.40649 11.4644 9.40649 13.7243C9.40649 15.9842 11.2391 17.8167 13.4989 17.8167C15.7588 17.8167 17.5914 15.9842 17.5914 13.7243Z" stroke="#AC6755" stroke-width="1.95172" stroke-linecap="round" stroke-linejoin="round"/>
<path fill-rule="evenodd" clip-rule="evenodd" d="M13.4986 23.7455C23.9667 23.7455 25.2131 20.6091 25.2131 13.813C25.2131 9.0494 24.583 6.50052 20.6152 5.40481C20.2509 5.28977 19.8468 5.07062 19.5195 4.71041C18.9908 4.13106 18.6046 2.35191 17.3281 1.81365C16.0516 1.27675 10.9251 1.3014 9.66913 1.81365C8.41455 2.32726 8.00641 4.13106 7.47773 4.71041C7.15039 5.07062 6.74772 5.28977 6.38202 5.40481C2.41421 6.50052 1.78418 9.0494 1.78418 13.813C1.78418 20.6091 3.03054 23.7455 13.4986 23.7455Z" stroke="#AC6755" stroke-width="1.95172" stroke-linecap="round" stroke-linejoin="round"/>
<path d="M19.8901 9.17255H19.9018" stroke="#AC6755" stroke-width="1.95172" stroke-linecap="round" stroke-linejoin="round"/>
</svg>
