<svg width="32" height="32" viewBox="0 0 32 32" fill="none" xmlns="http://www.w3.org/2000/svg">
<g clip-path="url(#clip0_18_222)">
<path fill-rule="evenodd" clip-rule="evenodd" d="M7 28.5C7 27.3954 7.89543 26.5 9 26.5C10.1046 26.5 11 27.3954 11 28.5C11 29.6046 10.1046 30.5 9 30.5C7.89543 30.5 7 29.6046 7 28.5Z" fill="#2F294D"/>
<path fill-rule="evenodd" clip-rule="evenodd" d="M18 28.5C18 27.3954 18.8954 26.5 20 26.5C21.1046 26.5 22 27.3954 22 28.5C22 29.6046 21.1046 30.5 20 30.5C18.8954 30.5 18 29.6046 18 28.5Z" fill="#2F294D"/>
<path fill-rule="evenodd" clip-rule="evenodd" d="M0 8.5C0 7.94772 0.447715 7.5 1 7.5H5C5.47663 7.5 5.88701 7.83639 5.98055 8.30374L6.82043 12.5H23C23.298 12.5 23.5805 12.6329 23.7705 12.8626C23.9605 13.0922 24.0381 13.3946 23.9823 13.6873L22.3809 22.0848C22.2437 22.7754 21.868 23.3958 21.3195 23.8373C20.7738 24.2766 20.0916 24.511 19.3914 24.5H9.68864C8.98837 24.511 8.3062 24.2766 7.76048 23.8373C7.21225 23.3959 6.83664 22.7759 6.69933 22.0857C6.69927 22.0854 6.69939 22.0859 6.69933 22.0857L5.02879 13.7392C5.02201 13.7116 5.01638 13.6835 5.01195 13.6551L4.18032 9.5H1C0.447715 9.5 0 9.05228 0 8.5ZM7.22073 14.5L8.66084 21.6952C8.70656 21.9254 8.83179 22.1322 9.01461 22.2793C9.19743 22.4265 9.42619 22.5047 9.66084 22.5002L9.68 22.5H19.4L19.4192 22.5002C19.6538 22.5047 19.8826 22.4265 20.0654 22.2793C20.2474 22.1328 20.3723 21.9273 20.4185 21.6984L21.7913 14.5H7.22073Z" fill="#2F294D"/>
</g>
<circle cx="23.5" cy="9" r="7.5" fill="#24FF00" stroke="white" stroke-width="2"/>
<defs>
<clipPath id="clip0_18_222">
<rect width="24" height="24" fill="white" transform="translate(0 7.5)"/>
</clipPath>
</defs>
</svg>
