<svg width="20" height="20" viewBox="0 0 20 20" fill="none" xmlns="http://www.w3.org/2000/svg">
<path d="M6.59279 3.80761L5.16744 2.38226C5.87967 1.93089 6.6422 1.59023 7.43165 1.35864C7.2778 2.24765 6.99372 3.07113 6.59279 3.80761ZM11.4364 1.1015C12.6271 1.29091 13.7841 1.71618 14.833 2.38186L10 7.21482L9.45335 6.66817C10.564 5.05322 11.2335 3.14712 11.4364 1.1015ZM3.8082 6.59338C3.07255 6.99394 2.24836 7.27794 1.35861 7.43175C1.5902 6.64227 1.93087 5.8797 2.38226 5.16744L3.8082 6.59338ZM12.7852 10L17.6181 5.16704C18.284 6.21625 18.7094 7.37373 18.8987 8.56483C16.8513 8.76964 14.9451 9.43859 13.3321 10.5469L12.7852 10ZM8.56486 18.8984C7.37471 18.7086 6.21743 18.2822 5.16796 17.6172L10 12.7852L10.5469 13.3321C9.43864 14.9451 8.7697 16.8512 8.56486 18.8984ZM16.193 13.4079C16.928 13.0087 17.751 12.725 18.6408 12.5703C18.4092 13.359 18.0687 14.1209 17.6177 14.8326L16.193 13.4079ZM7.21482 10L2.38186 14.833C1.7164 13.7845 1.2912 12.6278 1.10169 11.4376C3.14817 11.2362 5.05403 10.5642 6.66826 9.45344L7.21482 10ZM13.408 16.1932L14.8326 17.6177C14.121 18.0687 13.3592 18.4091 12.5706 18.6407C12.7254 17.7518 13.0091 16.9283 13.408 16.1932Z" stroke="#585E5E" stroke-width="2"/>
</svg>
