<svg width="18" height="22" viewBox="0 0 18 22" fill="none" xmlns="http://www.w3.org/2000/svg">
<path d="M12.9994 15.3188C12.9994 16.4653 12.6393 17.5369 12.0146 18.4348L11.6768 18.1122C13.3195 15.6183 12.3996 12.459 10.0876 10.9312L11.8294 10.8387L16.6039 10.5852L16.6076 10.585C16.8879 10.5691 17.0098 10.7805 16.999 10.9062C16.999 10.9062 16.999 10.9062 16.999 10.9062L16.4185 17.6653L16.4185 17.6663C16.4055 17.819 16.3534 17.8627 16.3227 17.8847C16.269 17.9232 16.1632 17.9611 16.0225 17.9494C15.8814 17.9378 15.7832 17.8828 15.7373 17.837C15.7119 17.8116 15.6721 17.7659 15.6842 17.6264L15.6843 17.6255L16.1343 12.3617L16.2321 11.2166L15.0845 11.278L13.235 11.3768L11.6972 11.459L12.3979 12.8304C12.7833 13.5846 12.9994 14.4262 12.9994 15.3188ZM6.99745 10.0218C5.92054 10.0218 4.91209 10.322 4.06158 10.8405L3.74893 10.5419C4.42307 10.1293 5.19231 9.84007 6.0217 9.71103L6.36713 9.65728L6.60383 9.40003L9.99231 5.7175L10.852 4.78323L9.74231 4.16636L7.82532 3.1007L7.21925 2.76378L6.69124 3.21326L4.36926 5.18988L4.36847 5.19055C4.23719 5.30254 4.14442 5.30798 4.08553 5.30129C4.00492 5.29214 3.90454 5.24589 3.82198 5.15773C3.73858 5.06866 3.71867 4.98683 3.71846 4.94911C3.71845 4.94877 3.71844 4.94836 3.71843 4.94788C3.71812 4.93466 3.71658 4.87001 3.84412 4.76118L6.90366 2.15327L6.90366 2.15327L6.90588 2.15137C7.02219 2.05164 7.212 2.02612 7.36862 2.1127L7.372 2.11458L7.38544 2.12203L7.43785 2.1511L7.6368 2.26143L8.34698 2.65533L10.5026 3.85117C11.2867 4.28622 12.071 4.72148 12.6597 5.04847C12.9541 5.212 13.1994 5.34832 13.3713 5.44398L13.5701 5.55479L13.6203 5.58294L13.6221 5.58396C13.6947 5.62901 13.7746 5.73143 13.7967 5.88779C13.8179 6.03724 13.7779 6.18675 13.6689 6.30515L13.6683 6.3057L11.0404 9.16321L9.65263 10.6722C8.88337 10.2615 7.98662 10.0218 6.99745 10.0218ZM1 15.3145C1 14.389 1.23534 13.5129 1.65547 12.7392L2.01361 13.0812C0.320591 16.5054 2.9454 20.6158 7.00195 20.6158C7.84611 20.6158 8.64771 20.4309 9.36472 20.1007L9.68345 20.4051C5.83262 22.2635 1 19.6124 1 15.3145ZM16.3654 2.18717C16.3654 2.79936 15.8311 3.37435 15.0749 3.37435C14.3187 3.37435 13.7844 2.79936 13.7844 2.18717C13.7844 1.57499 14.3187 1 15.0749 1C15.8311 1 16.3654 1.57499 16.3654 2.18717Z" stroke="#585E5E" stroke-width="2"/>
</svg>
