<svg width="22" height="16" viewBox="0 0 22 16" fill="none" xmlns="http://www.w3.org/2000/svg">
<path d="M17.8749 7H17.994L17.4243 5.6187L16.5679 3.54245L16.5679 3.54233C16.0948 2.39579 14.9625 1.66667 13.7284 1.66667H8.27134C7.03718 1.66667 5.9049 2.39579 5.43182 3.54233L5.43177 3.54245L4.5754 5.6187L4.00567 7H4.12485M17.8749 7H16.4999H5.49985H4.12485M17.8749 7C18.5046 7 19.1115 7.20641 19.5668 7.64653C20.0251 8.0896 20.2499 8.69277 20.2499 9.32917C20.2499 9.96557 20.0251 10.5687 19.5668 11.0118C19.1115 11.4519 18.5046 11.6583 17.8749 11.6583C17.8127 11.6583 17.7351 11.6599 17.6467 11.6617C17.3006 11.6686 16.7877 11.6788 16.3752 11.6124C16.1038 11.5687 15.7297 11.4748 15.4069 11.2251C15.0301 10.9337 14.8124 10.4989 14.8124 9.99375C14.8124 9.55308 14.976 9.15296 15.1516 8.8475C15.3346 8.529 15.5772 8.23209 15.8392 7.97882C16.1015 7.7253 16.4068 7.49273 16.7314 7.31838C17.0445 7.15025 17.4432 7 17.8749 7ZM4.12485 7C4.55647 7 4.95522 7.15025 5.26829 7.31838C5.59294 7.49273 5.89823 7.7253 6.1605 7.97882C6.42249 8.23209 6.66507 8.529 6.84812 8.8475C7.02367 9.15296 7.18735 9.55308 7.18735 9.99375C7.18735 10.4989 6.96959 10.9337 6.59285 11.2251C6.26998 11.4748 5.89587 11.5687 5.62454 11.6124C5.21202 11.6788 4.69912 11.6686 4.35297 11.6617C4.26457 11.6599 4.18705 11.6583 4.12485 11.6583C3.49507 11.6583 2.88825 11.4519 2.43295 11.0118C1.97461 10.5687 1.74985 9.96557 1.74985 9.32917C1.74985 8.69277 1.97461 8.0896 2.43295 7.64653C2.88825 7.20641 3.49507 7 4.12485 7ZM17.9868 5.048L18.242 5.66667H17.6376L19.7175 7.42952C20.0921 7.74703 20.3124 8.18753 20.3124 8.66667V10.6667C20.3124 11.0669 20.1565 11.4399 19.8823 11.744L19.6249 12.0294V12.4137V14.6667C19.6249 14.8218 19.4861 15 19.2499 15H17.8749C17.6387 15 17.4999 14.8218 17.4999 14.6667V13.3333V12.3333H16.4999H5.49985H4.49985V13.3333V14.6667C4.49985 14.8218 4.36105 15 4.12485 15H2.74985C2.51364 15 2.37485 14.8218 2.37485 14.6667V12.4137V12.0296L2.1177 11.7443C1.84307 11.4396 1.68734 11.0663 1.68734 10.6667V8.66667C1.68734 8.18758 1.90758 7.7472 2.28239 7.42975L4.36408 5.66667H3.75725L4.01245 5.048L4.72744 3.3147C4.72744 3.31469 4.72745 3.31468 4.72745 3.31466C5.30282 1.92004 6.68287 1 8.27134 1H13.7284C15.3173 1 16.6968 1.92003 17.2718 3.31451L17.2718 3.31466L17.9868 5.048Z" stroke="#585E5E" stroke-width="2"/>
</svg>
