<svg width="26" height="30" viewBox="0 0 26 30" fill="none" xmlns="http://www.w3.org/2000/svg">
<g filter="url(#filter0_d_165_96)">
<path d="M17.1429 6.875V7.61441C17.0502 7.60082 16.9549 7.59375 16.8571 7.59375C16.7594 7.59375 16.6641 7.60082 16.5714 7.61441V6.875V5.5C16.5714 3.49565 15.0324 1.75 13 1.75C10.9676 1.75 9.42857 3.49565 9.42857 5.5V6.875V7.61441C9.33593 7.60082 9.24059 7.59375 9.14286 7.59375C9.04512 7.59375 8.94979 7.60082 8.85714 7.61441V6.875V5.5C8.85714 2.95525 10.7787 1 13 1C15.2213 1 17.1429 2.95525 17.1429 5.5V6.875ZM18.8214 9.625C18.8214 8.91329 18.4513 8.23954 17.8596 7.875H18.1429H21V18.5625C21 19.973 19.9465 21 18.7857 21H7.21429C6.05354 21 5 19.973 5 18.5625V7.875H7.85714H8.14044C7.54872 8.23954 7.17857 8.91329 7.17857 9.625C7.17857 10.6825 7.99583 11.6562 9.14286 11.6562C10.2899 11.6562 11.1071 10.6825 11.1071 9.625C11.1071 8.91329 10.737 8.23954 10.1453 7.875H10.4286H15.5714H15.8547C15.263 8.23954 14.8929 8.91329 14.8929 9.625C14.8929 10.6825 15.7101 11.6562 16.8571 11.6562C18.0042 11.6562 18.8214 10.6825 18.8214 9.625Z" stroke="#585E5E" stroke-width="2" shape-rendering="crispEdges"/>
</g>
<defs>
<filter id="filter0_d_165_96" x="0" y="0" width="26" height="30" filterUnits="userSpaceOnUse" color-interpolation-filters="sRGB">
<feFlood flood-opacity="0" result="BackgroundImageFix"/>
<feColorMatrix in="SourceAlpha" type="matrix" values="0 0 0 0 0 0 0 0 0 0 0 0 0 0 0 0 0 0 127 0" result="hardAlpha"/>
<feOffset dy="4"/>
<feGaussianBlur stdDeviation="2"/>
<feComposite in2="hardAlpha" operator="out"/>
<feColorMatrix type="matrix" values="0 0 0 0 0 0 0 0 0 0 0 0 0 0 0 0 0 0 0.25 0"/>
<feBlend mode="normal" in2="BackgroundImageFix" result="effect1_dropShadow_165_96"/>
<feBlend mode="normal" in="SourceGraphic" in2="effect1_dropShadow_165_96" result="shape"/>
</filter>
</defs>
</svg>
