<svg width="22" height="18" viewBox="0 0 22 18" fill="none" xmlns="http://www.w3.org/2000/svg">
<path d="M4.2589 6.55934L2.72295 7.32821L1.14121 4.08958L6.77184 1.23504C7.80209 2.15259 9.37209 2.65938 11.0006 2.65938C12.6291 2.65938 14.1991 2.15259 15.2294 1.23504L20.8569 4.08798L19.2718 7.32491L17.7355 6.55582C16.6667 6.01953 15.4964 6.84164 15.4964 7.95586V16.875C15.4964 16.9664 15.4315 17 15.3966 17H6.59776C6.56288 17 6.49791 16.9664 6.49791 16.875V7.95937C6.49791 6.83668 5.32369 6.02579 4.25975 6.55891C4.25961 6.55898 4.25948 6.55904 4.25935 6.55911C4.2592 6.55919 4.25905 6.55926 4.2589 6.55934Z" stroke="#585E5E" stroke-width="2"/>
</svg>
