<svg width="22" height="18" viewBox="0 0 22 18" fill="none" xmlns="http://www.w3.org/2000/svg">
<path d="M19.7778 5.5H20.5556H20.7778H21V6.1875C21 6.93307 20.4594 7.64126 19.5816 7.89676L18.9444 8.08224L18.3073 7.89676C17.4295 7.64126 16.8889 6.93307 16.8889 6.1875V5.5H17.1111H17.3333H18.1111H18.3333H19.5556H19.7778ZM11.2222 9.6875V10V10.6875V13.625H2.22222V2.25C2.22222 1.63593 2.78913 1 3.66667 1H9.77778C10.6553 1 11.2222 1.63593 11.2222 2.25V9V9.6875ZM10.7408 6.76991L10.7408 6.76994L10.7459 6.76288C11.1058 6.26241 11.052 5.65398 10.7474 5.22816C10.4628 4.83035 10.0009 4.625 9.53715 4.625H8.61179L8.74079 4.10509C8.88634 3.60286 8.70856 3.1313 8.42026 2.82906C8.13273 2.52761 7.73309 2.375 7.33333 2.375H4.73611C4.1807 2.375 3.42903 2.72082 3.29528 3.53273L3.29492 3.53492L2.6843 7.29367C2.68418 7.29435 2.68407 7.29503 2.68396 7.29571C2.60229 7.79376 2.81633 8.221 3.10331 8.48501C3.3853 8.74441 3.75529 8.875 4.125 8.875H5.04649L4.55505 10.5075L4.55503 10.5075L4.55334 10.5133C4.39992 11.0342 4.5924 11.5138 4.88866 11.8134C5.1751 12.1032 5.56704 12.25 5.95833 12.25C6.36745 12.25 6.85399 12.0818 7.16398 11.6539L10.7408 6.76991ZM1 17V16.75H12.4444V17H1Z" stroke="#585E5E" stroke-width="2"/>
</svg>
