<svg width="22" height="18" viewBox="0 0 22 18" fill="none" xmlns="http://www.w3.org/2000/svg">
<path d="M21.45 14.625H13.1154C13.09 15.3214 12.6098 15.75 11.99 15.75H9.9C9.25753 15.75 8.76494 15.1358 8.77353 14.625H0.55C0.2475 14.625 0 14.8781 0 15.1875V15.75C0 16.9875 0.99 18 2.2 18H19.8C21.01 18 22 16.9875 22 15.75V15.1875C22 14.8781 21.7525 14.625 21.45 14.625ZM19.8 1.6875C19.8 0.759375 19.0575 0 18.15 0H3.85C2.9425 0 2.2 0.759375 2.2 1.6875V13.5H19.8V1.6875ZM17.6 11.25H4.4V2.25H17.6V11.25Z" fill="#585E5E"/>
</svg>
