<svg width="22" height="18" viewBox="0 0 22 18" fill="none" xmlns="http://www.w3.org/2000/svg">
<path d="M6.875 10.2857H6.1875C4.66855 10.2857 3.4375 11.4388 3.4375 12.862V15.4237C3.4375 16.8465 4.66855 18 6.1875 18H6.875C7.63426 18 8.25 17.423 8.25 16.7119V11.5738C8.25 10.8623 7.63426 10.2857 6.875 10.2857ZM15.8125 10.2857H15.125C14.3657 10.2857 13.75 10.8623 13.75 11.5738V16.7119C13.75 17.423 14.3657 18 15.125 18H15.8125C17.3314 18 18.5625 16.8465 18.5625 15.4237V12.862C18.5625 11.4392 17.3314 10.2857 15.8125 10.2857ZM11 0C4.8516 0 0.196367 4.78647 0 10.2857V14.7857C0 15.1409 0.307656 15.4286 0.6875 15.4286H1.375C1.75484 15.4286 2.0625 15.1409 2.0625 14.7857V10.2857C2.0625 5.67844 6.07277 1.93661 11 1.9358C15.9272 1.93661 19.9375 5.67844 19.9375 10.2857V14.7857C19.9375 15.1409 20.2452 15.4286 20.625 15.4286H21.3125C21.6923 15.4286 22 15.1409 22 14.7857V10.2857C21.8036 4.78647 17.1484 0 11 0Z" fill="#585E5E"/>
</svg>
