<svg width="22" height="15" viewBox="0 0 22 15" fill="none" xmlns="http://www.w3.org/2000/svg">
<path d="M3.55355 12.0848C3.55463 12.1208 3.55578 12.1614 3.55699 12.2055C3.47075 12.2346 3.37866 12.2656 3.28214 12.2982C3.37073 12.2063 3.46056 12.1132 3.55143 12.0189C3.55206 12.037 3.55277 12.059 3.55355 12.0848ZM14.442 13.455C14.4444 13.4579 14.4469 13.4609 14.4493 13.4639C14.3681 13.4449 14.2844 13.4252 14.1984 13.405C13.2019 13.1712 11.8951 12.8641 10.593 12.5578C9.69646 12.3469 8.80222 12.1364 8.01309 11.9504C8.10489 11.9155 8.19714 11.8804 8.28938 11.8453C9.4823 11.3911 10.7548 10.9063 10.9157 10.8372C10.9235 10.835 10.9369 10.8319 10.956 10.8286C10.9779 10.8247 11.0004 10.8217 11.0219 10.8194C11.0259 10.8199 11.0302 10.8203 11.0348 10.8209C11.0897 10.827 11.1678 10.837 11.2661 10.8508C11.4614 10.878 11.7127 10.9161 11.9692 10.9564C12.2269 10.9969 12.4845 11.0386 12.6879 11.072L14.4099 13.4137L14.4254 13.4347L14.442 13.455ZM9.86432 1.01607C10.9711 1.00952 12.7432 1.00028 12.9917 1.00029L12.9961 1.00027C13.2057 0.999355 13.3388 1.00071 13.4367 1.00697C13.4493 1.00778 13.4606 1.00863 13.4705 1.00949C13.4823 1.02404 13.4969 1.04255 13.5145 1.06585L13.5146 1.06577C13.7403 1.35624 19.1716 8.18126 20.4053 9.73111C20.069 9.87808 19.6689 10.0523 19.2679 10.2267C18.7742 10.4413 18.2798 10.6558 17.9021 10.8192C17.7132 10.901 17.5539 10.9698 17.4386 11.0194C17.403 11.0347 17.3734 11.0474 17.3494 11.0577C17.345 11.0519 17.339 11.044 17.3309 11.0333L17.251 10.9271C17.1838 10.8376 17.0905 10.7129 16.9746 10.5577C16.7428 10.2475 16.4218 9.81729 16.0411 9.3066C15.2797 8.28528 14.2801 6.94319 13.2782 5.59793L13.0555 5.29893C11.8257 3.64785 10.6134 2.02018 9.86432 1.01607ZM3.57577 13.0326C3.57628 13.0367 3.57585 13.0336 3.575 13.0262C3.57538 13.0294 3.57565 13.0316 3.57574 13.0324L3.57577 13.0326ZM5.29435 10.2123C6.97387 8.47147 8.60277 6.78314 9.06626 6.29768L9.76023 7.23348C9.48523 7.49936 9.14755 7.82583 8.81078 8.15162C8.42813 8.52178 8.04629 8.89141 7.7587 9.17042C7.61967 9.3053 7.50208 9.41957 7.4169 9.50266L5.13622 10.3762L5.29435 10.2123Z" stroke="#585E5E" stroke-width="2"/>
</svg>
