<svg width="20" height="20" viewBox="0 0 20 20" fill="none" xmlns="http://www.w3.org/2000/svg">
<path d="M9.21429 2.5C9.21429 2.41433 9.20882 2.33096 9.1983 2.25H9.61563H13.2143C13.2456 2.25 13.2692 2.25574 13.2857 2.26206V4H8.45365C8.90183 3.66384 9.21429 3.14771 9.21429 2.5ZM4.71429 7.1875V15.25H1.07143C1.04014 15.25 1.01647 15.2443 1 15.2379V2.26206C1.01647 2.25574 1.04014 2.25 1.07143 2.25H4.67009H5.08742C5.0769 2.33096 5.07143 2.41433 5.07143 2.5C5.07143 3.4754 5.78002 4.1524 6.59366 4.36576C5.51197 4.87994 4.71429 5.89943 4.71429 7.1875ZM15.3571 12.25H19V18.9879C18.9835 18.9943 18.9599 19 18.9286 19H8.21429C8.183 19 8.15932 18.9943 8.14286 18.9879V7.26206C8.15932 7.25574 8.183 7.25 8.21429 7.25H13.2857V10.3125C13.2857 11.5017 14.3452 12.25 15.3571 12.25ZM18.0528 9H16.7143V7.82877L18.0528 9Z" stroke="#585E5E" stroke-width="2"/>
</svg>
