<svg width="20" height="20" viewBox="0 0 20 20" fill="none" xmlns="http://www.w3.org/2000/svg">
<mask id="path-1-inside-1_165_179" fill="white">
<path d="M19.6205 6.23842L10.4799 0.144655C10.1679 -0.0473383 9.8349 -0.0490961 9.52006 0.144655L0.379452 6.23842C0.145078 6.39464 0 6.6737 0 6.95268V13.0464C0 13.3254 0.145078 13.6045 0.379491 13.7607L9.5201 19.8553C9.83209 20.0473 10.1651 20.0491 10.4799 19.8553L19.6205 13.7607C19.8549 13.6045 20 13.3254 20 13.0464V6.95268C20 6.6737 19.8549 6.39464 19.6205 6.23842ZM10.8594 2.46603L17.5893 6.95268L14.587 8.96164L10.8594 6.47276V2.46603ZM9.14061 2.46603V6.47276L5.41292 8.96164L2.4107 6.95268L9.14061 2.46603ZM1.71875 8.55984L3.87277 9.99957L1.71875 11.4393V8.55984ZM9.14061 17.5331L2.4107 13.0465L5.41292 11.0375L9.14061 13.5264V17.5331ZM9.99998 12.0308L6.96424 9.99957L9.99998 7.96831L13.0357 9.99957L9.99998 12.0308ZM10.8594 17.5331V13.5264L14.587 11.0375L17.5893 13.0465L10.8594 17.5331ZM18.2812 11.4393L16.1272 9.99957L18.2812 8.55984V11.4393Z"/>
</mask>
<path d="M10.4799 0.144655L11.5893 -1.51944L11.559 -1.53961L11.528 -1.55867L10.4799 0.144655ZM9.52006 0.144655L8.47186 -1.55866L8.4409 -1.53961L8.41066 -1.51944L9.52006 0.144655ZM0.379452 6.23842L1.48866 7.90265L1.48886 7.90252L0.379452 6.23842ZM0.379491 13.7607L1.489 12.0967L1.48877 12.0965L0.379491 13.7607ZM9.5201 19.8553L8.41059 21.5194L8.44089 21.5396L8.47191 21.5587L9.5201 19.8553ZM10.4799 19.8553L11.5281 21.5587L11.5591 21.5396L11.5894 21.5194L10.4799 19.8553ZM19.6205 13.7607L18.5113 12.0965L18.511 12.0967L19.6205 13.7607ZM20 6.95268H22V6.9524L20 6.95268ZM10.8594 2.46603L11.9688 0.801935L8.85935 -1.27103V2.46603H10.8594ZM17.5893 6.95268L18.7015 8.61487L21.1902 6.9496L18.6987 5.28859L17.5893 6.95268ZM14.587 8.96164L13.4765 10.625L14.5883 11.3673L15.6993 10.6238L14.587 8.96164ZM10.8594 6.47276H8.85935V7.54223L9.7488 8.13609L10.8594 6.47276ZM9.14061 2.46603H11.1406V-1.27103L8.0312 0.801935L9.14061 2.46603ZM9.14061 6.47276L10.2512 8.13609L11.1406 7.54223V6.47276H9.14061ZM5.41292 8.96164L4.30066 10.6238L5.41169 11.3673L6.52348 10.625L5.41292 8.96164ZM2.4107 6.95268L1.30129 5.28859L-1.19019 6.9496L1.29844 8.61487L2.4107 6.95268ZM1.71875 8.55984L2.83013 6.89706L-0.281253 4.81744V8.55984H1.71875ZM3.87277 9.99957L4.98415 11.6623L7.47187 9.99957L4.98415 8.3368L3.87277 9.99957ZM1.71875 11.4393H-0.281253V15.1817L2.83013 13.1021L1.71875 11.4393ZM9.14061 17.5331L8.0312 19.1972L11.1406 21.2702V17.5331H9.14061ZM2.4107 13.0465L1.29844 11.3843L-1.19019 13.0495L1.30129 14.7106L2.4107 13.0465ZM5.41292 11.0375L6.52348 9.37418L5.41169 8.63186L4.30066 9.37531L5.41292 11.0375ZM9.14061 13.5264H11.1406V12.4569L10.2512 11.8631L9.14061 13.5264ZM9.99998 12.0308L8.88776 13.693L9.99998 14.4372L11.1122 13.693L9.99998 12.0308ZM6.96424 9.99957L5.85203 8.33735L3.36782 9.99957L5.85203 11.6618L6.96424 9.99957ZM9.99998 7.96831L11.1122 6.30609L9.99998 5.56189L8.88776 6.30609L9.99998 7.96831ZM13.0357 9.99957L14.1479 11.6618L16.6321 9.99957L14.1479 8.33735L13.0357 9.99957ZM10.8594 17.5331H8.85935V21.2702L11.9688 19.1972L10.8594 17.5331ZM10.8594 13.5264L9.7488 11.8631L8.85935 12.4569V13.5264H10.8594ZM14.587 11.0375L15.6993 9.37531L14.5883 8.63186L13.4765 9.37418L14.587 11.0375ZM17.5893 13.0465L18.6987 14.7106L21.1902 13.0495L18.7015 11.3843L17.5893 13.0465ZM18.2812 11.4393L17.1698 13.1021L20.2812 15.1817V11.4393H18.2812ZM16.1272 9.99957L15.0158 8.3368L12.5281 9.99957L15.0158 11.6623L16.1272 9.99957ZM18.2812 8.55984H20.2812V4.81744L17.1698 6.89706L18.2812 8.55984ZM20.7299 4.57433L11.5893 -1.51944L9.37046 1.80875L18.5111 7.90252L20.7299 4.57433ZM11.528 -1.55867C10.5769 -2.14399 9.43315 -2.15022 8.47186 -1.55866L10.5683 1.84797C10.4485 1.92168 10.2508 2.00034 9.99831 2C9.74637 1.99966 9.55007 1.92083 9.43168 1.84798L11.528 -1.55867ZM8.41066 -1.51944L-0.729952 4.57433L1.48886 7.90252L10.6295 1.80875L8.41066 -1.51944ZM-0.72976 4.5742C-1.5347 5.11069 -2 6.02198 -2 6.95268H2C2 7.32542 1.82485 7.67858 1.48866 7.90265L-0.72976 4.5742ZM-2 6.95268V13.0464H2V6.95268H-2ZM-2 13.0464C-2 13.9773 -1.5346 14.8884 -0.729785 15.4249L1.48877 12.0965C1.82475 12.3205 2 12.6736 2 13.0464H-2ZM-0.730021 15.4247L8.41059 21.5194L10.6296 18.1913L1.489 12.0967L-0.730021 15.4247ZM8.47191 21.5587C9.42308 22.144 10.5668 22.1502 11.5281 21.5587L9.4317 18.152C9.55148 18.0783 9.74914 17.9997 10.0017 18C10.2536 18.0003 10.4499 18.0792 10.5683 18.152L8.47191 21.5587ZM11.5894 21.5194L20.73 15.4247L18.511 12.0967L9.37039 18.1913L11.5894 21.5194ZM20.7297 15.4249C21.5345 14.8885 22 13.9773 22 13.0464H18C18 12.6736 18.1752 12.3205 18.5113 12.0965L20.7297 15.4249ZM22 13.0464V6.95268H18V13.0464H22ZM22 6.9524C21.9999 6.0219 21.5346 5.11062 20.7296 4.57411L18.5114 7.90274C18.1751 7.67865 18.0001 7.3255 18 6.95297L22 6.9524ZM9.74995 4.13012L16.4799 8.61678L18.6987 5.28859L11.9688 0.801935L9.74995 4.13012ZM16.477 5.2905L13.4748 7.29945L15.6993 10.6238L18.7015 8.61487L16.477 5.2905ZM15.6976 7.29831L11.9699 4.80943L9.7488 8.13609L13.4765 10.625L15.6976 7.29831ZM12.8594 6.47276V2.46603H8.85935V6.47276H12.8594ZM7.14061 2.46603V6.47276H11.1406V2.46603H7.14061ZM8.03005 4.80943L4.30236 7.29831L6.52348 10.625L10.2512 8.13609L8.03005 4.80943ZM6.52518 7.29945L3.52296 5.2905L1.29844 8.61487L4.30066 10.6238L6.52518 7.29945ZM3.52011 8.61678L10.25 4.13012L8.0312 0.801935L1.30129 5.28859L3.52011 8.61678ZM0.60736 10.2226L2.76138 11.6623L4.98415 8.3368L2.83013 6.89706L0.60736 10.2226ZM2.76138 8.3368L0.60736 9.77653L2.83013 13.1021L4.98415 11.6623L2.76138 8.3368ZM3.71875 11.4393V8.55984H-0.281253V11.4393H3.71875ZM10.25 15.869L3.52011 11.3824L1.30129 14.7106L8.0312 19.1972L10.25 15.869ZM3.52296 14.7086L6.52518 12.6997L4.30066 9.37531L1.29844 11.3843L3.52296 14.7086ZM4.30236 12.7008L8.03005 15.1897L10.2512 11.8631L6.52348 9.37418L4.30236 12.7008ZM7.14061 13.5264V17.5331H11.1406V13.5264H7.14061ZM11.1122 10.3686L8.07646 8.33735L5.85203 11.6618L8.88776 13.693L11.1122 10.3686ZM8.07646 11.6618L11.1122 9.63053L8.88776 6.30609L5.85203 8.33735L8.07646 11.6618ZM8.88776 9.63053L11.9235 11.6618L14.1479 8.33735L11.1122 6.30609L8.88776 9.63053ZM11.9235 8.33735L8.88776 10.3686L11.1122 13.693L14.1479 11.6618L11.9235 8.33735ZM12.8594 17.5331V13.5264H8.85935V17.5331H12.8594ZM11.9699 15.1897L15.6976 12.7008L13.4765 9.37418L9.7488 11.8631L11.9699 15.1897ZM13.4748 12.6997L16.477 14.7086L18.7015 11.3843L15.6993 9.37531L13.4748 12.6997ZM16.4799 11.3824L9.74995 15.869L11.9688 19.1972L18.6987 14.7106L16.4799 11.3824ZM19.3926 9.77653L17.2386 8.3368L15.0158 11.6623L17.1698 13.1021L19.3926 9.77653ZM17.2386 11.6623L19.3926 10.2226L17.1698 6.89706L15.0158 8.3368L17.2386 11.6623ZM16.2812 8.55984V11.4393H20.2812V8.55984H16.2812Z" fill="#585E5E" mask="url(#path-1-inside-1_165_179)"/>
</svg>
