<svg width="25" height="25" viewBox="0 0 25 25" fill="none" xmlns="http://www.w3.org/2000/svg">
<rect width="25" height="25" rx="8.61111" fill="url(#paint0_linear_210_636)"/>
<mask id="mask0_210_636" style="mask-type:alpha" maskUnits="userSpaceOnUse" x="0" y="0" width="25" height="25">
<rect width="25" height="25" rx="8.61111" fill="white"/>
</mask>
<g mask="url(#mask0_210_636)">
<g filter="url(#filter0_f_210_636)">
<rect x="22.8125" y="19.4792" width="13.8889" height="1.59722" rx="0.798611" transform="rotate(-90 22.8125 19.4792)" fill="#86EBF6"/>
</g>
<g filter="url(#filter1_f_210_636)">
<rect x="22.8125" y="8.29861" width="2.70833" height="1.59722" rx="0.798611" transform="rotate(-90 22.8125 8.29861)" fill="#86EBF6"/>
</g>
<g filter="url(#filter2_f_210_636)">
<rect x="0.59021" y="19.4792" width="13.8889" height="1.59722" rx="0.798611" transform="rotate(-90 0.59021 19.4792)" fill="#86EBF6"/>
</g>
<g filter="url(#filter3_f_210_636)">
<rect x="0.59021" y="8.29861" width="2.70833" height="1.59722" rx="0.798611" transform="rotate(-90 0.59021 8.29861)" fill="#86EBF6"/>
</g>
<g filter="url(#filter4_f_210_636)">
<rect x="3.61108" y="1.52777" width="17.7778" height="2.01389" rx="0.861111" fill="#86EBF6"/>
</g>
</g>
<g filter="url(#filter5_d_210_636)">
<path fill-rule="evenodd" clip-rule="evenodd" d="M12.5001 19.8611C17.486 19.8611 21.5278 16.5654 21.5278 12.5C21.5278 8.43457 17.486 5.13889 12.5001 5.13889C7.51416 5.13889 3.47229 8.43457 3.47229 12.5C3.47229 14.4663 4.41781 16.2525 5.95835 17.5729C5.68408 17.9308 4.58667 19.3071 3.83299 19.4371C3.0476 19.5726 7.04206 19.8688 8.29504 19.0155C9.55083 19.5555 10.9817 19.8611 12.5001 19.8611Z" fill="url(#paint1_linear_210_636)"/>
</g>
<path fill-rule="evenodd" clip-rule="evenodd" d="M10.0293 12.405C10.0293 13.1132 9.45492 13.6873 8.7464 13.6873C8.03787 13.6873 7.4635 13.1132 7.4635 12.405C7.4635 11.6969 8.03787 11.1228 8.7464 11.1228C9.45492 11.1228 10.0293 11.6969 10.0293 12.405ZM13.8303 12.405C13.8303 13.1132 13.256 13.6873 12.5474 13.6873C11.8389 13.6873 11.2645 13.1132 11.2645 12.405C11.2645 11.6969 11.8389 11.1228 12.5474 11.1228C13.256 11.1228 13.8303 11.6969 13.8303 12.405ZM16.3487 13.6873C17.0572 13.6873 17.6316 13.1132 17.6316 12.405C17.6316 11.6969 17.0572 11.1228 16.3487 11.1228C15.6401 11.1228 15.0658 11.6969 15.0658 12.405C15.0658 13.1132 15.6401 13.6873 16.3487 13.6873Z" fill="url(#paint2_linear_210_636)"/>
<defs>
<filter id="filter0_f_210_636" x="19.5355" y="2.31326" width="8.15125" height="20.443" filterUnits="userSpaceOnUse" color-interpolation-filters="sRGB">
<feFlood flood-opacity="0" result="BackgroundImageFix"/>
<feBlend mode="normal" in="SourceGraphic" in2="BackgroundImageFix" result="shape"/>
<feGaussianBlur stdDeviation="1.63852" result="effect1_foregroundBlur_210_636"/>
</filter>
<filter id="filter1_f_210_636" x="19.5355" y="2.31323" width="8.15125" height="9.26242" filterUnits="userSpaceOnUse" color-interpolation-filters="sRGB">
<feFlood flood-opacity="0" result="BackgroundImageFix"/>
<feBlend mode="normal" in="SourceGraphic" in2="BackgroundImageFix" result="shape"/>
<feGaussianBlur stdDeviation="1.63852" result="effect1_foregroundBlur_210_636"/>
</filter>
<filter id="filter2_f_210_636" x="-2.68683" y="2.31326" width="8.15125" height="20.443" filterUnits="userSpaceOnUse" color-interpolation-filters="sRGB">
<feFlood flood-opacity="0" result="BackgroundImageFix"/>
<feBlend mode="normal" in="SourceGraphic" in2="BackgroundImageFix" result="shape"/>
<feGaussianBlur stdDeviation="1.63852" result="effect1_foregroundBlur_210_636"/>
</filter>
<filter id="filter3_f_210_636" x="-2.68683" y="2.31323" width="8.15125" height="9.26242" filterUnits="userSpaceOnUse" color-interpolation-filters="sRGB">
<feFlood flood-opacity="0" result="BackgroundImageFix"/>
<feBlend mode="normal" in="SourceGraphic" in2="BackgroundImageFix" result="shape"/>
<feGaussianBlur stdDeviation="1.63852" result="effect1_foregroundBlur_210_636"/>
</filter>
<filter id="filter4_f_210_636" x="0.334044" y="-1.74927" width="24.3319" height="8.56796" filterUnits="userSpaceOnUse" color-interpolation-filters="sRGB">
<feFlood flood-opacity="0" result="BackgroundImageFix"/>
<feBlend mode="normal" in="SourceGraphic" in2="BackgroundImageFix" result="shape"/>
<feGaussianBlur stdDeviation="1.63852" result="effect1_foregroundBlur_210_636"/>
</filter>
<filter id="filter5_d_210_636" x="2.0084" y="4.53611" width="20.9833" height="17.65" filterUnits="userSpaceOnUse" color-interpolation-filters="sRGB">
<feFlood flood-opacity="0" result="BackgroundImageFix"/>
<feColorMatrix in="SourceAlpha" type="matrix" values="0 0 0 0 0 0 0 0 0 0 0 0 0 0 0 0 0 0 127 0" result="hardAlpha"/>
<feOffset dy="0.861111"/>
<feGaussianBlur stdDeviation="0.731944"/>
<feColorMatrix type="matrix" values="0 0 0 0 0 0 0 0 0 0 0 0 0 0 0 0 0 0 0.110987 0"/>
<feBlend mode="normal" in2="BackgroundImageFix" result="effect1_dropShadow_210_636"/>
<feBlend mode="normal" in="SourceGraphic" in2="effect1_dropShadow_210_636" result="shape"/>
</filter>
<linearGradient id="paint0_linear_210_636" x1="0" y1="0" x2="0" y2="25" gradientUnits="userSpaceOnUse">
<stop stop-color="#66E1ED"/>
<stop offset="1" stop-color="#38B8CC"/>
</linearGradient>
<linearGradient id="paint1_linear_210_636" x1="3.47229" y1="5.13889" x2="3.47229" y2="19.8611" gradientUnits="userSpaceOnUse">
<stop stop-color="white"/>
<stop offset="0.448372" stop-color="#F4F4F4"/>
<stop offset="0.756884" stop-color="#C1E6EA"/>
<stop offset="0.999973" stop-color="#A6EAF1"/>
</linearGradient>
<linearGradient id="paint2_linear_210_636" x1="7.4635" y1="11.1228" x2="7.4635" y2="13.6873" gradientUnits="userSpaceOnUse">
<stop stop-color="#D6FEAF"/>
<stop offset="0.557115" stop-color="#BF2CC6"/>
<stop offset="1" stop-color="#BF2CC6"/>
</linearGradient>
</defs>
</svg>
