<svg width="24" height="24" viewBox="0 0 24 24" fill="none" xmlns="http://www.w3.org/2000/svg">
<rect width="24" height="24" rx="8.61111" fill="#1B1C31"/>
<mask id="mask0_1451_2988" style="mask-type:alpha" maskUnits="userSpaceOnUse" x="0" y="0" width="24" height="24">
<rect width="24" height="24" rx="8.61111" fill="white"/>
</mask>
<g mask="url(#mask0_1451_2988)">
<g filter="url(#filter0_f_1451_2988)">
<rect x="21.8994" y="18.7002" width="13.3333" height="1.53333" rx="0.766667" transform="rotate(-90 21.8994 18.7002)" fill="black"/>
</g>
<g filter="url(#filter1_f_1451_2988)">
<rect x="21.8994" y="7.9668" width="2.6" height="1.53333" rx="0.766667" transform="rotate(-90 21.8994 7.9668)" fill="black"/>
</g>
<g filter="url(#filter2_f_1451_2988)">
<rect x="0.566406" y="18.7002" width="13.3333" height="1.53333" rx="0.766667" transform="rotate(-90 0.566406 18.7002)" fill="black"/>
</g>
<g filter="url(#filter3_f_1451_2988)">
<rect x="0.566406" y="7.9668" width="2.6" height="1.53333" rx="0.766667" transform="rotate(-90 0.566406 7.9668)" fill="black"/>
</g>
<g filter="url(#filter4_f_1451_2988)">
<rect x="3.4668" y="1.4668" width="17.0667" height="1.93333" rx="0.861111" fill="black"/>
</g>
</g>
<path d="M18.6668 9.21318C18.67 9.17102 18.67 9.12867 18.6668 9.08651V9.08651L17.3335 5.75318C17.2814 5.62142 17.1887 5.50967 17.0689 5.43415C16.949 5.35863 16.8082 5.32326 16.6668 5.33318H7.3335C7.19998 5.33305 7.0695 5.37302 6.95895 5.4479C6.84841 5.52278 6.7629 5.62914 6.7135 5.75318L5.38016 9.08651C5.37695 9.12867 5.37695 9.17102 5.38016 9.21318C5.35801 9.25029 5.34224 9.29085 5.3335 9.33318V9.33318C5.34092 9.79401 5.46765 10.245 5.70133 10.6423C5.93501 11.0396 6.26765 11.3695 6.66683 11.5998V17.9998C6.66683 18.1767 6.73707 18.3462 6.86209 18.4713C6.98712 18.5963 7.15669 18.6665 7.3335 18.6665H16.6668C16.8436 18.6665 17.0132 18.5963 17.1382 18.4713C17.2633 18.3462 17.3335 18.1767 17.3335 17.9998V11.6265C17.7365 11.3938 18.0717 11.0597 18.3056 10.6574C18.5395 10.2551 18.664 9.79855 18.6668 9.33318V9.33318C18.6731 9.29342 18.6731 9.25294 18.6668 9.21318V9.21318ZM12.6668 17.3332H11.3335V14.6665H12.6668V17.3332ZM16.0002 17.3332H14.0002V13.9998C14.0002 13.823 13.9299 13.6535 13.8049 13.5284C13.6799 13.4034 13.5103 13.3332 13.3335 13.3332H10.6668C10.49 13.3332 10.3204 13.4034 10.1954 13.5284C10.0704 13.6535 10.0002 13.823 10.0002 13.9998V17.3332H8.00016V11.9998C8.37981 11.9977 8.75462 11.9145 9.09953 11.7559C9.44444 11.5972 9.7515 11.3667 10.0002 11.0798C10.2504 11.3636 10.5582 11.5909 10.903 11.7465C11.2478 11.9022 11.6218 11.9827 12.0002 11.9827C12.3785 11.9827 12.7525 11.9022 13.0973 11.7465C13.4422 11.5909 13.7499 11.3636 14.0002 11.0798C14.2488 11.3667 14.5559 11.5972 14.9008 11.7559C15.2457 11.9145 15.6205 11.9977 16.0002 11.9998V17.3332ZM16.0002 10.6665C15.6465 10.6665 15.3074 10.526 15.0574 10.276C14.8073 10.0259 14.6668 9.6868 14.6668 9.33318C14.6668 9.15637 14.5966 8.9868 14.4716 8.86177C14.3465 8.73675 14.177 8.66651 14.0002 8.66651C13.8234 8.66651 13.6538 8.73675 13.5288 8.86177C13.4037 8.9868 13.3335 9.15637 13.3335 9.33318C13.3335 9.6868 13.193 10.0259 12.943 10.276C12.6929 10.526 12.3538 10.6665 12.0002 10.6665C11.6465 10.6665 11.3074 10.526 11.0574 10.276C10.8073 10.0259 10.6668 9.6868 10.6668 9.33318C10.6668 9.15637 10.5966 8.9868 10.4716 8.86177C10.3465 8.73675 10.177 8.66651 10.0002 8.66651C9.82335 8.66651 9.65378 8.73675 9.52876 8.86177C9.40373 8.9868 9.3335 9.15637 9.3335 9.33318C9.34006 9.50827 9.31208 9.68295 9.25114 9.84723C9.1902 10.0115 9.0975 10.1622 8.97833 10.2906C8.85916 10.4191 8.71586 10.5228 8.5566 10.5959C8.39735 10.669 8.22526 10.7099 8.05016 10.7165C7.69654 10.7298 7.35213 10.602 7.09271 10.3613C6.96425 10.2422 6.86053 10.0989 6.78746 9.93962C6.71438 9.78036 6.6734 9.60827 6.66683 9.43318L7.78683 6.66651H16.2135L17.3335 9.43318C17.3082 9.76919 17.1567 10.0832 16.9093 10.312C16.6619 10.5408 16.3371 10.6675 16.0002 10.6665V10.6665Z" fill="#24FF00"/>
<defs>
<filter id="filter0_f_1451_2988" x="18.6224" y="2.08966" width="8.08728" height="19.8876" filterUnits="userSpaceOnUse" color-interpolation-filters="sRGB">
<feFlood flood-opacity="0" result="BackgroundImageFix"/>
<feBlend mode="normal" in="SourceGraphic" in2="BackgroundImageFix" result="shape"/>
<feGaussianBlur stdDeviation="1.63852" result="effect1_foregroundBlur_1451_2988"/>
</filter>
<filter id="filter1_f_1451_2988" x="18.6224" y="2.08966" width="8.08728" height="9.15418" filterUnits="userSpaceOnUse" color-interpolation-filters="sRGB">
<feFlood flood-opacity="0" result="BackgroundImageFix"/>
<feBlend mode="normal" in="SourceGraphic" in2="BackgroundImageFix" result="shape"/>
<feGaussianBlur stdDeviation="1.63852" result="effect1_foregroundBlur_1451_2988"/>
</filter>
<filter id="filter2_f_1451_2988" x="-2.71063" y="2.08966" width="8.08728" height="19.8876" filterUnits="userSpaceOnUse" color-interpolation-filters="sRGB">
<feFlood flood-opacity="0" result="BackgroundImageFix"/>
<feBlend mode="normal" in="SourceGraphic" in2="BackgroundImageFix" result="shape"/>
<feGaussianBlur stdDeviation="1.63852" result="effect1_foregroundBlur_1451_2988"/>
</filter>
<filter id="filter3_f_1451_2988" x="-2.71063" y="2.08966" width="8.08728" height="9.15418" filterUnits="userSpaceOnUse" color-interpolation-filters="sRGB">
<feFlood flood-opacity="0" result="BackgroundImageFix"/>
<feBlend mode="normal" in="SourceGraphic" in2="BackgroundImageFix" result="shape"/>
<feGaussianBlur stdDeviation="1.63852" result="effect1_foregroundBlur_1451_2988"/>
</filter>
<filter id="filter4_f_1451_2988" x="0.189757" y="-1.81024" width="23.621" height="8.48718" filterUnits="userSpaceOnUse" color-interpolation-filters="sRGB">
<feFlood flood-opacity="0" result="BackgroundImageFix"/>
<feBlend mode="normal" in="SourceGraphic" in2="BackgroundImageFix" result="shape"/>
<feGaussianBlur stdDeviation="1.63852" result="effect1_foregroundBlur_1451_2988"/>
</filter>
</defs>
</svg>
