<svg width="37" height="36" viewBox="0 0 37 36" fill="none" xmlns="http://www.w3.org/2000/svg">
<rect x="0.79541" y="0.0297852" width="35.3011" height="35.3011" rx="17.6506" fill="#98FF87"/>
<g clip-path="url(#clip0_138_617)">
<path d="M18.1577 9.55762V25.7373" stroke="white" stroke-width="1.47088" stroke-linecap="round" stroke-linejoin="round"/>
<path d="M21.8347 12.5007H16.3189C15.6362 12.5007 14.9815 12.7719 14.4988 13.2547C14.0161 13.7374 13.7449 14.3921 13.7449 15.0748C13.7449 15.7574 14.0161 16.4122 14.4988 16.8949C14.9815 17.3776 15.6362 17.6488 16.3189 17.6488H19.9961C20.6788 17.6488 21.3335 17.92 21.8162 18.4027C22.299 18.8855 22.5702 19.5402 22.5702 20.2229C22.5702 20.9055 22.299 21.5602 21.8162 22.043C21.3335 22.5257 20.6788 22.7969 19.9961 22.7969H13.7449" stroke="white" stroke-width="1.47088" stroke-linecap="round" stroke-linejoin="round"/>
</g>
<defs>
<clipPath id="clip0_138_617">
<rect width="17.6506" height="17.6506" fill="white" transform="translate(9.33325 8.82275)"/>
</clipPath>
</defs>
</svg>
