<svg width="22" height="22" viewBox="0 0 22 22" fill="none" xmlns="http://www.w3.org/2000/svg">
<rect width="22" height="22" rx="11" fill="url(#paint0_linear_210_738)"/>
<mask id="mask0_210_738" style="mask-type:alpha" maskUnits="userSpaceOnUse" x="0" y="0" width="22" height="22">
<rect width="22" height="22" rx="11" fill="white"/>
</mask>
<g mask="url(#mask0_210_738)">
<g filter="url(#filter0_f_210_738)">
<rect x="20.5638" y="17.1417" width="12.2222" height="1.40556" rx="0.638889" transform="rotate(-90 20.5638 17.1417)" fill="#FFCCCC"/>
</g>
<g filter="url(#filter1_f_210_738)">
<rect x="20.5638" y="7.3028" width="2.38333" height="1.40556" rx="0.638889" transform="rotate(-90 20.5638 7.3028)" fill="#FFCCCC"/>
</g>
<g filter="url(#filter2_f_210_738)">
<rect x="0.0305176" y="17.1417" width="12.2222" height="1.40556" rx="0.638889" transform="rotate(-90 0.0305176 17.1417)" fill="#FFCCCC"/>
</g>
<g filter="url(#filter3_f_210_738)">
<rect x="0.0305176" y="7.3028" width="2.38333" height="1.40556" rx="0.638889" transform="rotate(-90 0.0305176 7.3028)" fill="#FFCCCC"/>
</g>
<g filter="url(#filter4_f_210_738)">
<rect x="3.17773" width="15.6444" height="1.77222" rx="0.638889" fill="#FFCCCC"/>
</g>
</g>
<g filter="url(#filter5_d_210_738)">
<path fill-rule="evenodd" clip-rule="evenodd" d="M11.0549 13.4026C12.1103 13.6495 12.7657 14.7053 12.5188 15.7607C12.2719 16.8161 11.2162 17.4716 10.1607 17.2246C9.10532 16.9777 8.4499 15.922 8.69682 14.8666C8.94374 13.8111 9.99949 13.1557 11.0549 13.4026ZM10.5997 2.32224C10.2468 2.32224 9.96079 2.60828 9.96079 2.96113L9.96079 11.95C9.96079 12.3029 10.2468 12.5889 10.5997 12.5889L10.9719 12.5889C11.3247 12.5889 11.6108 12.3029 11.6108 11.95L11.6108 2.96113C11.6108 2.60828 11.3247 2.32224 10.9719 2.32224L10.5997 2.32224Z" fill="url(#paint1_linear_210_738)"/>
</g>
<defs>
<filter id="filter0_f_210_738" x="18.1325" y="2.4881" width="6.26822" height="17.0849" filterUnits="userSpaceOnUse" color-interpolation-filters="sRGB">
<feFlood flood-opacity="0" result="BackgroundImageFix"/>
<feBlend mode="normal" in="SourceGraphic" in2="BackgroundImageFix" result="shape"/>
<feGaussianBlur stdDeviation="1.21568" result="effect1_foregroundBlur_210_738"/>
</filter>
<filter id="filter1_f_210_738" x="18.1325" y="2.48811" width="6.26822" height="7.24604" filterUnits="userSpaceOnUse" color-interpolation-filters="sRGB">
<feFlood flood-opacity="0" result="BackgroundImageFix"/>
<feBlend mode="normal" in="SourceGraphic" in2="BackgroundImageFix" result="shape"/>
<feGaussianBlur stdDeviation="1.21568" result="effect1_foregroundBlur_210_738"/>
</filter>
<filter id="filter2_f_210_738" x="-2.40083" y="2.4881" width="6.26822" height="17.0849" filterUnits="userSpaceOnUse" color-interpolation-filters="sRGB">
<feFlood flood-opacity="0" result="BackgroundImageFix"/>
<feBlend mode="normal" in="SourceGraphic" in2="BackgroundImageFix" result="shape"/>
<feGaussianBlur stdDeviation="1.21568" result="effect1_foregroundBlur_210_738"/>
</filter>
<filter id="filter3_f_210_738" x="-2.40083" y="2.48811" width="6.26822" height="7.24604" filterUnits="userSpaceOnUse" color-interpolation-filters="sRGB">
<feFlood flood-opacity="0" result="BackgroundImageFix"/>
<feBlend mode="normal" in="SourceGraphic" in2="BackgroundImageFix" result="shape"/>
<feGaussianBlur stdDeviation="1.21568" result="effect1_foregroundBlur_210_738"/>
</filter>
<filter id="filter4_f_210_738" x="0.746382" y="-2.43135" width="20.5071" height="6.63493" filterUnits="userSpaceOnUse" color-interpolation-filters="sRGB">
<feFlood flood-opacity="0" result="BackgroundImageFix"/>
<feBlend mode="normal" in="SourceGraphic" in2="BackgroundImageFix" result="shape"/>
<feGaussianBlur stdDeviation="1.21568" result="effect1_foregroundBlur_210_738"/>
</filter>
<filter id="filter5_d_210_738" x="8.26144" y="2.32224" width="4.69281" height="15.9128" filterUnits="userSpaceOnUse" color-interpolation-filters="sRGB">
<feFlood flood-opacity="0" result="BackgroundImageFix"/>
<feColorMatrix in="SourceAlpha" type="matrix" values="0 0 0 0 0 0 0 0 0 0 0 0 0 0 0 0 0 0 127 0" result="hardAlpha"/>
<feOffset dy="0.575"/>
<feGaussianBlur stdDeviation="0.191667"/>
<feColorMatrix type="matrix" values="0 0 0 0 0 0 0 0 0 0 0 0 0 0 0 0 0 0 0.157889 0"/>
<feBlend mode="normal" in2="BackgroundImageFix" result="effect1_dropShadow_210_738"/>
<feBlend mode="normal" in="SourceGraphic" in2="effect1_dropShadow_210_738" result="shape"/>
</filter>
<linearGradient id="paint0_linear_210_738" x1="0" y1="0" x2="0" y2="22" gradientUnits="userSpaceOnUse">
<stop stop-color="#FFC2C2"/>
<stop offset="0.999426" stop-color="#FF0000"/>
</linearGradient>
<linearGradient id="paint1_linear_210_738" x1="12.12" y1="11.2815" x2="7.56887" y2="10.2167" gradientUnits="userSpaceOnUse">
<stop stop-color="white"/>
<stop offset="1" stop-color="#FDA7A7"/>
<stop offset="1" stop-color="#FFCDCD"/>
</linearGradient>
</defs>
</svg>
