<svg width="41" height="40" viewBox="0 0 41 40" fill="none" xmlns="http://www.w3.org/2000/svg">
<circle cx="20.6" cy="20" r="20" fill="white"/>
<circle cx="20.6" cy="20.2668" r="3.73333" fill="#24FF00"/>
<path fill-rule="evenodd" clip-rule="evenodd" d="M17.2691 16.3606C18.2362 15.3936 19.5219 14.8553 20.8895 14.8553C22.2571 14.8553 23.5428 15.3964 24.5098 16.3634C25.1234 16.977 25.5618 17.7143 25.8004 18.5372H29.6438V13.3715C29.6438 12.1596 28.7071 11.2229 27.4952 11.2229H14.3295C13.1176 11.2229 12.0895 12.1596 12.0895 13.3715V18.5372H15.9785C16.2172 17.7143 16.6556 16.9742 17.2691 16.3606ZM28.1809 15.0264C28.1809 15.3495 27.919 15.6115 27.5958 15.6115H25.8404C25.5172 15.6115 25.2552 15.3496 25.2552 15.0264V13.271C25.2552 12.9478 25.5172 12.6858 25.8404 12.6858H27.5958C27.9189 12.6858 28.1809 12.9478 28.1809 13.271V15.0264Z" fill="#24FF00"/>
<path fill-rule="evenodd" clip-rule="evenodd" d="M24.5098 23.6013C23.5428 24.5684 22.2571 25.0952 20.8895 25.0952C19.5219 25.0952 18.2362 24.5712 17.2691 23.6042C16.3039 22.6389 15.7716 21.3257 15.7696 20H12.0895V26.5371C12.0895 27.749 13.1176 28.7771 14.3295 28.7771H27.4952C28.7071 28.7771 29.6438 27.749 29.6438 26.5371V20H26.0094C26.0074 21.3257 25.4751 22.6361 24.5098 23.6013Z" fill="#24FF00"/>
</svg>
