<svg width="41" height="40" viewBox="0 0 41 40" fill="none" xmlns="http://www.w3.org/2000/svg">
<circle cx="20.2" cy="20" r="20" fill="white"/>
<path fill-rule="evenodd" clip-rule="evenodd" d="M28.5313 10.6667H12.5071C11.6319 10.6667 10.8667 11.2969 10.8667 12.1621V28.2213C10.8667 29.0915 11.6319 29.8667 12.5071 29.8667H28.5263C29.4065 29.8667 30.0667 29.0865 30.0667 28.2213V12.1621C30.0717 11.2969 29.4065 10.6667 28.5313 10.6667ZM16.8182 26.6708H14.0675V18.1186H16.8182V26.6708ZM15.5379 16.8182H15.5179C14.6377 16.8182 14.0675 16.163 14.0675 15.3428C14.0675 14.5076 14.6527 13.8674 15.5529 13.8674C16.4531 13.8674 17.0033 14.5026 17.0233 15.3428C17.0233 16.163 16.4531 16.8182 15.5379 16.8182ZM26.8708 26.6709H24.1201V21.9947C24.1201 20.8744 23.72 20.1092 22.7247 20.1092C21.9645 20.1092 21.5144 20.6243 21.3144 21.1245C21.2393 21.3045 21.2193 21.5496 21.2193 21.7996V26.6709H18.4686V18.1187H21.2193V19.309C21.6194 18.7388 22.2446 17.9186 23.7 17.9186C25.5054 17.9186 26.8708 19.1089 26.8708 21.6746V26.6709Z" fill="#24FF00"/>
</svg>
