<svg width="26" height="25" viewBox="0 0 26 25" fill="none" xmlns="http://www.w3.org/2000/svg">
<path fill-rule="evenodd" clip-rule="evenodd" d="M16.8298 13.3216C16.8298 11.0586 14.9947 9.22339 12.7316 9.22339C10.4685 9.22339 8.6333 11.0586 8.6333 13.3216C8.6333 15.5847 10.4685 17.4199 12.7316 17.4199C14.9947 17.4199 16.8298 15.5847 16.8298 13.3216Z" stroke="#FF0000" stroke-width="1.95449" stroke-linecap="round" stroke-linejoin="round"/>
<path fill-rule="evenodd" clip-rule="evenodd" d="M12.7311 23.357C23.214 23.357 24.4621 20.2161 24.4621 13.4104C24.4621 8.64005 23.8312 6.08756 19.8577 4.9903C19.4929 4.87509 19.0883 4.65564 18.7605 4.29491C18.2311 3.71474 17.8443 1.93307 16.566 1.39404C15.2877 0.856382 10.1539 0.881071 8.89614 1.39404C7.63978 1.90838 7.23105 3.71474 6.70162 4.29491C6.37382 4.65564 5.97058 4.87509 5.60437 4.9903C1.63092 6.08756 1 8.64005 1 13.4104C1 20.2161 2.24813 23.357 12.7311 23.357Z" stroke="#FF0000" stroke-width="1.95449" stroke-linecap="round" stroke-linejoin="round"/>
<path d="M19.1315 8.76331H19.1432" stroke="#FF0000" stroke-width="1.95449" stroke-linecap="round" stroke-linejoin="round"/>
</svg>
