<svg width="26" height="25" viewBox="0 0 26 25" fill="none" xmlns="http://www.w3.org/2000/svg">
<path fill-rule="evenodd" clip-rule="evenodd" d="M17.3884 13.7042C17.3884 11.4411 15.5532 9.60596 13.2902 9.60596C11.0271 9.60596 9.19189 11.4411 9.19189 13.7042C9.19189 15.9673 11.0271 17.8025 13.2902 17.8025C15.5532 17.8025 17.3884 15.9673 17.3884 13.7042Z" stroke="white" stroke-width="1.95449" stroke-linecap="round" stroke-linejoin="round"/>
<path fill-rule="evenodd" clip-rule="evenodd" d="M13.2896 23.7396C23.7726 23.7396 25.0207 20.5987 25.0207 13.7929C25.0207 9.02262 24.3898 6.47013 20.4163 5.37287C20.0515 5.25766 19.6469 5.0382 19.3191 4.67748C18.7897 4.09731 18.4029 2.31563 17.1246 1.77661C15.8463 1.23895 10.7125 1.26364 9.45473 1.77661C8.19837 2.29095 7.78965 4.09731 7.26022 4.67748C6.93241 5.0382 6.52917 5.25766 6.16296 5.37287C2.18952 6.47013 1.55859 9.02262 1.55859 13.7929C1.55859 20.5987 2.80672 23.7396 13.2896 23.7396Z" stroke="white" stroke-width="1.95449" stroke-linecap="round" stroke-linejoin="round"/>
<path d="M19.6901 9.14588H19.7018" stroke="white" stroke-width="1.95449" stroke-linecap="round" stroke-linejoin="round"/>
</svg>
