<svg width="232" height="232" viewBox="0 0 232 232" fill="none" xmlns="http://www.w3.org/2000/svg">
<g filter="url(#filter0_d_3_33)">
<rect x="4" width="224" height="224" rx="25" fill="black"/>
</g>
<path d="M78.539 136.46C98.9706 156.892 131.798 156.924 151.861 136.861C171.924 116.798 171.892 83.9706 151.46 63.539C131.028 43.1075 98.2015 43.0748 78.1381 63.1382C58.0748 83.2015 58.1075 116.028 78.539 136.46Z" fill="black" stroke="#64ED10" stroke-width="25"/>
<mask id="path-3-outside-1_3_33" maskUnits="userSpaceOnUse" x="75.9407" y="87.2441" width="112.149" height="126.911" fill="black">
<rect fill="white" x="75.9407" y="87.2441" width="112.149" height="126.911"/>
<path fill-rule="evenodd" clip-rule="evenodd" d="M96.8058 156.274C96.6238 156.622 96.5417 157.012 96.5679 157.404C96.594 157.797 96.7275 158.177 96.9547 158.507C97.1819 158.837 97.4947 159.105 97.8612 159.284L163.254 193.297C163.725 193.512 164.253 193.57 164.756 193.463C165.258 193.355 165.706 193.088 166.027 192.704C166.348 192.32 166.524 191.84 166.528 191.342C166.532 190.844 166.362 190.356 166.047 189.955L141.49 160.398L166.348 145.18C166.691 144.97 166.967 144.675 167.149 144.325C167.331 143.975 167.412 143.582 167.383 143.188C167.355 142.794 167.218 142.412 166.986 142.081C166.755 141.751 166.437 141.485 166.066 141.31L100.163 107.601C99.6865 107.39 99.1539 107.339 98.6505 107.455C98.1471 107.571 97.7021 107.848 97.3873 108.24C97.0726 108.633 96.9062 109.12 96.9151 109.621C96.924 110.122 97.1076 110.609 97.4363 111.004L122.84 139.976L97.6041 155.425C97.2633 155.633 96.9879 155.926 96.8058 156.274Z"/>
</mask>
<path fill-rule="evenodd" clip-rule="evenodd" d="M96.8058 156.274C96.6238 156.622 96.5417 157.012 96.5679 157.404C96.594 157.797 96.7275 158.177 96.9547 158.507C97.1819 158.837 97.4947 159.105 97.8612 159.284L163.254 193.297C163.725 193.512 164.253 193.57 164.756 193.463C165.258 193.355 165.706 193.088 166.027 192.704C166.348 192.32 166.524 191.84 166.528 191.342C166.532 190.844 166.362 190.356 166.047 189.955L141.49 160.398L166.348 145.18C166.691 144.97 166.967 144.675 167.149 144.325C167.331 143.975 167.412 143.582 167.383 143.188C167.355 142.794 167.218 142.412 166.986 142.081C166.755 141.751 166.437 141.485 166.066 141.31L100.163 107.601C99.6865 107.39 99.1539 107.339 98.6505 107.455C98.1471 107.571 97.7021 107.848 97.3873 108.24C97.0726 108.633 96.9062 109.12 96.9151 109.621C96.924 110.122 97.1076 110.609 97.4363 111.004L122.84 139.976L97.6041 155.425C97.2633 155.633 96.9879 155.926 96.8058 156.274Z" fill="#64ED10"/>
<path d="M96.5679 157.404L100.605 157.274L100.605 157.274L96.5679 157.404ZM97.8612 159.284L99.5692 155.755L99.6205 155.78L99.671 155.806L97.8612 159.284ZM163.254 193.297L161.64 196.87L161.541 196.825L161.444 196.775L163.254 193.297ZM164.756 193.463L165.741 197.327L165.741 197.327L164.756 193.463ZM166.528 191.342L162.483 191.187L162.483 191.187L166.528 191.342ZM166.047 189.955L169.155 187.522L169.19 187.565L169.224 187.609L166.047 189.955ZM141.49 160.398L138.382 162.83L135.484 159.342L139.264 157.028L141.49 160.398ZM166.348 145.18L168.574 148.55L168.574 148.55L166.348 145.18ZM167.149 144.325L170.768 146.205L170.768 146.205L167.149 144.325ZM167.383 143.188L163.348 143.342L163.348 143.342L167.383 143.188ZM166.986 142.081L170.299 139.918L170.299 139.918L166.986 142.081ZM166.066 141.31L164.402 144.859L164.342 144.831L164.282 144.801L166.066 141.31ZM100.163 107.601L101.732 104.008L101.841 104.056L101.947 104.11L100.163 107.601ZM98.6505 107.455L99.6976 111.305L98.6505 107.455ZM97.3873 108.24L94.1719 105.741L94.1719 105.741L97.3873 108.24ZM96.9151 109.621L92.8703 109.562L92.8703 109.562L96.9151 109.621ZM97.4363 111.004L94.4007 113.521L94.366 113.481L94.3323 113.441L97.4363 111.004ZM122.84 139.976L125.875 137.459L128.951 140.968L125.065 143.346L122.84 139.976ZM97.6041 155.425L95.3784 152.055L95.3785 152.055L97.6041 155.425ZM92.5311 157.535C92.4575 156.432 92.689 155.345 93.1921 154.384L100.42 158.164C100.559 157.899 100.626 157.592 100.605 157.274L92.5311 157.535ZM93.6206 160.641C92.9805 159.71 92.6046 158.638 92.5311 157.535L100.605 157.274C100.583 156.955 100.475 156.644 100.289 156.374L93.6206 160.641ZM96.1532 162.812C95.1368 162.318 94.2605 161.571 93.6206 160.641L100.289 156.374C100.103 156.104 99.8526 155.893 99.5692 155.755L96.1532 162.812ZM161.444 196.775L96.0514 162.761L99.671 155.806L165.064 189.82L161.444 196.775ZM165.741 197.327C164.381 197.618 162.938 197.463 161.64 196.87L164.868 189.724C164.512 189.561 164.126 189.523 163.77 189.599L165.741 197.327ZM169.193 195.264C168.316 196.313 167.101 197.036 165.741 197.327L163.77 189.599C163.415 189.675 163.095 189.864 162.861 190.144L169.193 195.264ZM170.573 191.498C170.563 192.89 170.07 194.214 169.193 195.264L162.861 190.144C162.626 190.426 162.486 190.79 162.483 191.187L170.573 191.498ZM169.224 187.609C170.109 188.733 170.583 190.104 170.573 191.498L162.483 191.187C162.48 191.584 162.616 191.979 162.87 192.301L169.224 187.609ZM144.597 157.965L169.155 187.522L162.939 192.387L138.382 162.83L144.597 157.965ZM168.574 148.55L143.715 163.768L139.264 157.028L164.123 141.81L168.574 148.55ZM170.768 146.205C170.266 147.172 169.507 147.979 168.574 148.55L164.122 141.81C163.875 141.962 163.669 142.179 163.53 142.445L170.768 146.205ZM171.419 143.034C171.499 144.142 171.271 145.237 170.768 146.205L163.53 142.445C163.391 142.713 163.325 143.022 163.348 143.342L171.419 143.034ZM170.299 139.918C170.951 140.848 171.338 141.925 171.419 143.034L163.348 143.342C163.372 143.662 163.484 143.975 163.673 144.245L170.299 139.918ZM167.731 137.76C168.759 138.246 169.648 138.989 170.299 139.918L163.673 144.245C163.862 144.514 164.116 144.724 164.402 144.859L167.731 137.76ZM101.947 104.11L167.851 137.819L164.282 144.801L98.3786 111.092L101.947 104.11ZM97.6034 103.605C98.9662 103.291 100.42 103.427 101.732 104.008L98.593 111.194C98.9532 111.354 99.3416 111.387 99.6976 111.305L97.6034 103.605ZM94.1719 105.741C95.0319 104.668 96.2409 103.918 97.6034 103.605L99.6976 111.305C100.053 111.223 100.372 111.027 100.603 110.74L94.1719 105.741ZM92.8703 109.562C92.8454 108.159 93.311 106.816 94.1719 105.741L100.603 110.74C100.834 110.451 100.967 110.08 100.96 109.68L92.8703 109.562ZM94.3323 113.441C93.4104 112.334 92.8952 110.966 92.8703 109.562L100.96 109.68C100.953 109.278 100.805 108.885 100.54 108.567L94.3323 113.441ZM119.804 142.493L94.4007 113.521L100.472 108.487L125.875 137.459L119.804 142.493ZM95.3785 152.055L120.614 136.606L125.065 143.346L99.8297 158.795L95.3785 152.055ZM93.1921 154.384C93.6948 153.424 94.4511 152.622 95.3784 152.055L99.8298 158.795C100.076 158.644 100.281 158.429 100.42 158.164L93.1921 154.384Z" fill="black" mask="url(#path-3-outside-1_3_33)"/>
<path d="M124.864 164.963C125.229 165.524 126.063 165.8 127.319 165.775C128.575 165.75 130.228 165.424 132.184 164.816C134.14 164.209 136.361 163.331 138.719 162.233C141.078 161.135 143.527 159.839 145.929 158.418C148.331 156.998 150.637 155.481 152.716 153.953C154.795 152.426 156.607 150.919 158.047 149.518C159.488 148.116 160.529 146.848 161.111 145.786C161.693 144.724 162.041 143.809 161.676 143.248L143.152 154.145L124.864 164.963Z" fill="#64ED10"/>
<defs>
<filter id="filter0_d_3_33" x="0" y="0" width="232" height="232" filterUnits="userSpaceOnUse" color-interpolation-filters="sRGB">
<feFlood flood-opacity="0" result="BackgroundImageFix"/>
<feColorMatrix in="SourceAlpha" type="matrix" values="0 0 0 0 0 0 0 0 0 0 0 0 0 0 0 0 0 0 127 0" result="hardAlpha"/>
<feOffset dy="4"/>
<feGaussianBlur stdDeviation="2"/>
<feComposite in2="hardAlpha" operator="out"/>
<feColorMatrix type="matrix" values="0 0 0 0 0 0 0 0 0 0 0 0 0 0 0 0 0 0 0.25 0"/>
<feBlend mode="normal" in2="BackgroundImageFix" result="effect1_dropShadow_3_33"/>
<feBlend mode="normal" in="SourceGraphic" in2="effect1_dropShadow_3_33" result="shape"/>
</filter>
</defs>
</svg>
