<svg width="232" height="232" viewBox="0 0 232 232" fill="none" xmlns="http://www.w3.org/2000/svg">
<g filter="url(#filter0_d_3_33)">
<rect x="4" width="224" height="224" rx="25" fill="black"/>
</g>
<g filter="url(#filter1_d_3_33)">
<ellipse cx="64.0629" cy="64.6298" rx="64.0629" ry="64.6298" transform="matrix(-0.707107 0.707107 0.707107 0.707107 115.599 9)" fill="black"/>
<path d="M79.539 136.46C99.9706 156.892 132.798 156.924 152.861 136.861C172.924 116.798 172.892 83.9706 152.46 63.539C132.028 43.1075 99.2015 43.0748 79.1381 63.1382C59.0748 83.2015 59.1075 116.028 79.539 136.46Z" stroke="#25E907" stroke-width="25"/>
</g>
<g filter="url(#filter2_d_3_33)">
<mask id="path-4-inside-1_3_33" fill="white">
<path fill-rule="evenodd" clip-rule="evenodd" d="M97.8058 156.274C97.6238 156.622 97.5416 157.012 97.5678 157.404C97.594 157.797 97.7275 158.177 97.9547 158.507C98.1819 158.838 98.4947 159.105 98.8612 159.284L164.254 193.297C164.725 193.512 165.253 193.57 165.756 193.463C166.258 193.355 166.706 193.088 167.027 192.704C167.348 192.32 167.524 191.84 167.528 191.342C167.532 190.844 167.362 190.356 167.047 189.955L142.49 160.398L167.348 145.18C167.691 144.971 167.967 144.675 168.149 144.325C168.331 143.975 168.412 143.582 168.383 143.188C168.355 142.794 168.217 142.412 167.986 142.082C167.755 141.751 167.437 141.485 167.066 141.31L101.163 107.601C100.686 107.391 100.154 107.339 99.6505 107.455C99.147 107.571 98.7021 107.848 98.3873 108.241C98.0725 108.633 97.9062 109.12 97.9151 109.621C97.9239 110.122 98.1076 110.609 98.4363 111.004L123.84 139.976L98.6041 155.425C98.2633 155.633 97.9879 155.927 97.8058 156.274Z"/>
</mask>
<path fill-rule="evenodd" clip-rule="evenodd" d="M97.8058 156.274C97.6238 156.622 97.5416 157.012 97.5678 157.404C97.594 157.797 97.7275 158.177 97.9547 158.507C98.1819 158.838 98.4947 159.105 98.8612 159.284L164.254 193.297C164.725 193.512 165.253 193.57 165.756 193.463C166.258 193.355 166.706 193.088 167.027 192.704C167.348 192.32 167.524 191.84 167.528 191.342C167.532 190.844 167.362 190.356 167.047 189.955L142.49 160.398L167.348 145.18C167.691 144.971 167.967 144.675 168.149 144.325C168.331 143.975 168.412 143.582 168.383 143.188C168.355 142.794 168.217 142.412 167.986 142.082C167.755 141.751 167.437 141.485 167.066 141.31L101.163 107.601C100.686 107.391 100.154 107.339 99.6505 107.455C99.147 107.571 98.7021 107.848 98.3873 108.241C98.0725 108.633 97.9062 109.12 97.9151 109.621C97.9239 110.122 98.1076 110.609 98.4363 111.004L123.84 139.976L98.6041 155.425C98.2633 155.633 97.9879 155.927 97.8058 156.274Z" fill="#25E907"/>
<path d="M97.5679 157.404L101.605 157.274L101.605 157.274L97.5679 157.404ZM98.8612 159.284L100.569 155.755L100.62 155.78L100.671 155.806L98.8612 159.284ZM164.254 193.297L162.64 196.87L162.541 196.825L162.444 196.775L164.254 193.297ZM165.756 193.463L166.741 197.327L166.741 197.327L165.756 193.463ZM167.528 191.342L163.483 191.187L163.483 191.187L167.528 191.342ZM167.047 189.955L170.155 187.522L170.19 187.565L170.224 187.609L167.047 189.955ZM142.49 160.398L139.382 162.83L136.484 159.342L140.264 157.028L142.49 160.398ZM167.348 145.18L169.574 148.55L169.574 148.55L167.348 145.18ZM168.149 144.325L171.768 146.205L171.768 146.205L168.149 144.325ZM168.383 143.188L164.348 143.342L164.348 143.342L168.383 143.188ZM167.986 142.081L171.299 139.918L171.299 139.918L167.986 142.081ZM167.066 141.31L165.402 144.859L165.342 144.831L165.282 144.801L167.066 141.31ZM101.163 107.601L102.732 104.008L102.841 104.056L102.947 104.11L101.163 107.601ZM99.6505 107.455L100.698 111.305L99.6505 107.455ZM98.3873 108.24L95.1719 105.741L95.1719 105.741L98.3873 108.24ZM97.9151 109.621L93.8703 109.562L93.8703 109.562L97.9151 109.621ZM98.4363 111.004L95.4007 113.521L95.366 113.481L95.3323 113.441L98.4363 111.004ZM123.84 139.976L126.875 137.459L129.951 140.968L126.065 143.346L123.84 139.976ZM98.6041 155.425L96.3784 152.055L96.3785 152.055L98.6041 155.425ZM93.5311 157.535C93.4575 156.432 93.689 155.345 94.1921 154.384L101.42 158.164C101.559 157.899 101.626 157.592 101.605 157.274L93.5311 157.535ZM94.6206 160.641C93.9805 159.71 93.6046 158.638 93.5311 157.535L101.605 157.274C101.583 156.955 101.475 156.644 101.289 156.374L94.6206 160.641ZM97.1532 162.812C96.1368 162.318 95.2605 161.571 94.6206 160.641L101.289 156.374C101.103 156.104 100.853 155.893 100.569 155.755L97.1532 162.812ZM162.444 196.775L97.0514 162.761L100.671 155.806L166.064 189.82L162.444 196.775ZM166.741 197.327C165.381 197.618 163.938 197.463 162.64 196.87L165.868 189.724C165.512 189.561 165.126 189.523 164.77 189.599L166.741 197.327ZM170.193 195.264C169.316 196.313 168.101 197.036 166.741 197.327L164.77 189.599C164.415 189.675 164.095 189.864 163.861 190.144L170.193 195.264ZM171.573 191.498C171.563 192.89 171.07 194.214 170.193 195.264L163.861 190.144C163.626 190.426 163.486 190.79 163.483 191.187L171.573 191.498ZM170.224 187.609C171.109 188.733 171.583 190.104 171.573 191.498L163.483 191.187C163.48 191.584 163.616 191.979 163.87 192.301L170.224 187.609ZM145.597 157.965L170.155 187.522L163.939 192.387L139.382 162.83L145.597 157.965ZM169.574 148.55L144.715 163.768L140.264 157.028L165.123 141.81L169.574 148.55ZM171.768 146.205C171.266 147.172 170.507 147.979 169.574 148.55L165.122 141.81C164.875 141.962 164.669 142.179 164.53 142.445L171.768 146.205ZM172.419 143.034C172.499 144.142 172.271 145.237 171.768 146.205L164.53 142.445C164.391 142.713 164.325 143.022 164.348 143.342L172.419 143.034ZM171.299 139.918C171.951 140.848 172.338 141.925 172.419 143.034L164.348 143.342C164.372 143.662 164.484 143.975 164.673 144.245L171.299 139.918ZM168.731 137.76C169.759 138.246 170.648 138.989 171.299 139.918L164.673 144.245C164.862 144.514 165.116 144.724 165.402 144.859L168.731 137.76ZM102.947 104.11L168.851 137.819L165.282 144.801L99.3786 111.092L102.947 104.11ZM98.6034 103.605C99.9662 103.291 101.42 103.427 102.732 104.008L99.593 111.194C99.9532 111.354 100.342 111.387 100.698 111.305L98.6034 103.605ZM95.1719 105.741C96.0319 104.668 97.2409 103.918 98.6034 103.605L100.698 111.305C101.053 111.223 101.372 111.027 101.603 110.74L95.1719 105.741ZM93.8703 109.562C93.8454 108.159 94.311 106.816 95.1719 105.741L101.603 110.74C101.834 110.451 101.967 110.08 101.96 109.68L93.8703 109.562ZM95.3323 113.441C94.4104 112.334 93.8952 110.966 93.8703 109.562L101.96 109.68C101.953 109.278 101.805 108.885 101.54 108.567L95.3323 113.441ZM120.804 142.493L95.4007 113.521L101.472 108.487L126.875 137.459L120.804 142.493ZM96.3785 152.055L121.614 136.606L126.065 143.346L100.83 158.795L96.3785 152.055ZM94.1921 154.384C94.6948 153.424 95.4511 152.622 96.3784 152.055L100.83 158.795C101.076 158.644 101.281 158.429 101.42 158.164L94.1921 154.384Z" fill="black" mask="url(#path-4-inside-1_3_33)"/>
<path d="M125.864 164.963C126.229 165.524 127.063 165.8 128.319 165.775C129.575 165.75 131.228 165.424 133.184 164.816C135.14 164.209 137.361 163.331 139.719 162.233C142.078 161.135 144.527 159.839 146.929 158.418C149.331 156.998 151.637 155.481 153.716 153.953C155.795 152.426 157.607 150.919 159.047 149.518C160.488 148.116 161.529 146.848 162.111 145.786C162.693 144.724 163.041 143.809 162.676 143.248L144.152 154.145L125.864 164.963Z" fill="#25E907"/>
</g>
<defs>
<filter id="filter0_d_3_33" x="0" y="0" width="232" height="232" filterUnits="userSpaceOnUse" color-interpolation-filters="sRGB">
<feFlood flood-opacity="0" result="BackgroundImageFix"/>
<feColorMatrix in="SourceAlpha" type="matrix" values="0 0 0 0 0 0 0 0 0 0 0 0 0 0 0 0 0 0 127 0" result="hardAlpha"/>
<feOffset dy="4"/>
<feGaussianBlur stdDeviation="2"/>
<feComposite in2="hardAlpha" operator="out"/>
<feColorMatrix type="matrix" values="0 0 0 0 0 0 0 0 0 0 0 0 0 0 0 0 0 0 0.25 0"/>
<feBlend mode="normal" in2="BackgroundImageFix" result="effect1_dropShadow_3_33"/>
<feBlend mode="normal" in="SourceGraphic" in2="effect1_dropShadow_3_33" result="shape"/>
</filter>
<filter id="filter1_d_3_33" x="47.6525" y="35.6525" width="136.694" height="136.694" filterUnits="userSpaceOnUse" color-interpolation-filters="sRGB">
<feFlood flood-opacity="0" result="BackgroundImageFix"/>
<feColorMatrix in="SourceAlpha" type="matrix" values="0 0 0 0 0 0 0 0 0 0 0 0 0 0 0 0 0 0 127 0" result="hardAlpha"/>
<feOffset dy="4"/>
<feGaussianBlur stdDeviation="2"/>
<feComposite in2="hardAlpha" operator="out"/>
<feColorMatrix type="matrix" values="0 0 0 0 0 0 0 0 0 0 0 0 0 0 0 0 0 0 0.25 0"/>
<feBlend mode="normal" in2="BackgroundImageFix" result="effect1_dropShadow_3_33"/>
<feBlend mode="normal" in="SourceGraphic" in2="effect1_dropShadow_3_33" result="shape"/>
</filter>
<filter id="filter2_d_3_33" x="93.563" y="107.394" width="78.826" height="94.121" filterUnits="userSpaceOnUse" color-interpolation-filters="sRGB">
<feFlood flood-opacity="0" result="BackgroundImageFix"/>
<feColorMatrix in="SourceAlpha" type="matrix" values="0 0 0 0 0 0 0 0 0 0 0 0 0 0 0 0 0 0 127 0" result="hardAlpha"/>
<feOffset dy="4"/>
<feGaussianBlur stdDeviation="2"/>
<feComposite in2="hardAlpha" operator="out"/>
<feColorMatrix type="matrix" values="0 0 0 0 0 0 0 0 0 0 0 0 0 0 0 0 0 0 0.25 0"/>
<feBlend mode="normal" in2="BackgroundImageFix" result="effect1_dropShadow_3_33"/>
<feBlend mode="normal" in="SourceGraphic" in2="effect1_dropShadow_3_33" result="shape"/>
</filter>
</defs>
</svg>
