<svg width="185" height="219" viewBox="0 0 185 219" fill="none" xmlns="http://www.w3.org/2000/svg">
<path d="M54.539 127.46C74.9706 147.892 107.798 147.924 127.861 127.861C147.924 107.798 147.892 74.9706 127.46 54.539C107.028 34.1075 74.2015 34.0748 54.1381 54.1382C34.0748 74.2015 34.1075 107.028 54.539 127.46Z" fill="white" stroke="#1B1C31" stroke-width="25"/>
<mask id="path-2-outside-1_3_34" maskUnits="userSpaceOnUse" x="51.9407" y="78.2441" width="112.149" height="126.911" fill="black">
<rect fill="white" x="51.9407" y="78.2441" width="112.149" height="126.911"/>
<path fill-rule="evenodd" clip-rule="evenodd" d="M72.8058 147.274C72.6238 147.622 72.5417 148.012 72.5678 148.404C72.594 148.797 72.7275 149.177 72.9547 149.507C73.1819 149.838 73.4947 150.105 73.8612 150.284L139.254 184.297C139.725 184.512 140.253 184.57 140.756 184.463C141.258 184.355 141.706 184.088 142.027 183.704C142.348 183.32 142.524 182.84 142.528 182.342C142.532 181.844 142.362 181.356 142.047 180.955L117.49 151.398L142.348 136.18C142.691 135.971 142.967 135.675 143.149 135.325C143.331 134.975 143.412 134.582 143.383 134.188C143.355 133.794 143.217 133.412 142.986 133.082C142.755 132.751 142.437 132.485 142.066 132.31L76.1626 98.6013C75.6865 98.3905 75.1539 98.339 74.6505 98.4549C74.1471 98.5709 73.7021 98.8476 73.3873 99.2405C73.0725 99.6334 72.9062 100.12 72.9151 100.621C72.924 101.122 73.1076 101.609 73.4363 102.004L98.8395 130.976L73.6041 146.425C73.2633 146.633 72.9879 146.927 72.8058 147.274Z"/>
</mask>
<path fill-rule="evenodd" clip-rule="evenodd" d="M72.8058 147.274C72.6238 147.622 72.5417 148.012 72.5678 148.404C72.594 148.797 72.7275 149.177 72.9547 149.507C73.1819 149.838 73.4947 150.105 73.8612 150.284L139.254 184.297C139.725 184.512 140.253 184.57 140.756 184.463C141.258 184.355 141.706 184.088 142.027 183.704C142.348 183.32 142.524 182.84 142.528 182.342C142.532 181.844 142.362 181.356 142.047 180.955L117.49 151.398L142.348 136.18C142.691 135.971 142.967 135.675 143.149 135.325C143.331 134.975 143.412 134.582 143.383 134.188C143.355 133.794 143.217 133.412 142.986 133.082C142.755 132.751 142.437 132.485 142.066 132.31L76.1626 98.6013C75.6865 98.3905 75.1539 98.339 74.6505 98.4549C74.1471 98.5709 73.7021 98.8476 73.3873 99.2405C73.0725 99.6334 72.9062 100.12 72.9151 100.621C72.924 101.122 73.1076 101.609 73.4363 102.004L98.8395 130.976L73.6041 146.425C73.2633 146.633 72.9879 146.927 72.8058 147.274Z" fill="#1B1C31"/>
<path d="M72.5678 148.404L76.6046 148.274L76.6046 148.274L72.5678 148.404ZM73.8612 150.284L75.5692 146.755L75.6205 146.78L75.671 146.806L73.8612 150.284ZM139.254 184.297L137.64 187.87L137.541 187.825L137.444 187.775L139.254 184.297ZM140.756 184.463L141.741 188.327L141.741 188.327L140.756 184.463ZM142.528 182.342L138.483 182.187L138.483 182.187L142.528 182.342ZM142.047 180.955L145.155 178.523L145.19 178.565L145.224 178.609L142.047 180.955ZM117.49 151.398L114.382 153.83L111.484 150.342L115.264 148.028L117.49 151.398ZM142.348 136.18L144.574 139.55L144.574 139.55L142.348 136.18ZM143.149 135.325L146.768 137.205L146.768 137.205L143.149 135.325ZM143.383 134.188L139.348 134.342L139.348 134.342L143.383 134.188ZM142.986 133.082L146.299 130.918L146.299 130.918L142.986 133.082ZM142.066 132.31L140.402 135.86L140.342 135.831L140.282 135.801L142.066 132.31ZM76.1626 98.6013L77.7321 95.0082L77.8408 95.0563L77.9466 95.1104L76.1626 98.6013ZM74.6505 98.4549L75.6976 102.305L74.6505 98.4549ZM73.3873 99.2405L70.1719 96.7412L70.1719 96.7412L73.3873 99.2405ZM72.9151 100.621L68.8703 100.562L68.8703 100.562L72.9151 100.621ZM73.4363 102.004L70.4007 104.521L70.366 104.481L70.3323 104.441L73.4363 102.004ZM98.8395 130.976L101.875 128.459L104.951 131.968L101.065 134.346L98.8395 130.976ZM73.6041 146.425L71.3784 143.055L71.3785 143.055L73.6041 146.425ZM68.5311 148.535C68.4575 147.432 68.689 146.345 69.192 145.384L76.4196 149.164C76.5586 148.899 76.6259 148.592 76.6046 148.274L68.5311 148.535ZM69.6206 151.641C68.9805 150.711 68.6046 149.638 68.5311 148.535L76.6046 148.274C76.5834 147.955 76.4745 147.644 76.2888 147.374L69.6206 151.641ZM72.1531 153.813C71.1368 153.318 70.2605 152.571 69.6206 151.641L76.2888 147.374C76.1033 147.105 75.8526 146.893 75.5692 146.755L72.1531 153.813ZM137.444 187.775L72.0514 153.761L75.671 146.806L141.064 180.82L137.444 187.775ZM141.741 188.327C140.381 188.618 138.938 188.463 137.64 187.87L140.868 180.724C140.512 180.561 140.126 180.523 139.77 180.599L141.741 188.327ZM145.193 186.264C144.316 187.313 143.101 188.036 141.741 188.327L139.77 180.599C139.415 180.675 139.095 180.864 138.861 181.144L145.193 186.264ZM146.573 182.498C146.563 183.891 146.07 185.214 145.193 186.264L138.861 181.144C138.626 181.426 138.486 181.79 138.483 182.187L146.573 182.498ZM145.224 178.609C146.109 179.733 146.583 181.104 146.573 182.498L138.483 182.187C138.48 182.584 138.616 182.979 138.87 183.301L145.224 178.609ZM120.597 148.965L145.155 178.523L138.939 183.388L114.382 153.83L120.597 148.965ZM144.574 139.55L119.715 154.768L115.264 148.028L140.123 132.81L144.574 139.55ZM146.768 137.205C146.266 138.172 145.507 138.979 144.574 139.55L140.122 132.81C139.875 132.962 139.669 133.179 139.53 133.445L146.768 137.205ZM147.419 134.034C147.499 135.143 147.271 136.237 146.768 137.205L139.53 133.445C139.391 133.713 139.325 134.022 139.348 134.342L147.419 134.034ZM146.299 130.918C146.951 131.848 147.338 132.925 147.419 134.034L139.348 134.342C139.372 134.662 139.484 134.975 139.673 135.245L146.299 130.918ZM143.731 128.76C144.759 129.246 145.648 129.989 146.299 130.918L139.673 135.245C139.862 135.514 140.116 135.724 140.402 135.86L143.731 128.76ZM77.9466 95.1104L143.85 128.819L140.282 135.801L74.3785 102.092L77.9466 95.1104ZM73.6034 94.6046C74.9662 94.2907 76.4199 94.4272 77.7321 95.0082L74.593 102.194C74.9531 102.354 75.3416 102.387 75.6976 102.305L73.6034 94.6046ZM70.1719 96.7412C71.0319 95.6678 72.2409 94.9185 73.6034 94.6046L75.6976 102.305C76.0532 102.223 76.3724 102.027 76.6028 101.74L70.1719 96.7412ZM68.8703 100.562C68.8454 99.1595 69.311 97.8157 70.1719 96.7412L76.6028 101.74C76.834 101.451 76.9669 101.08 76.9599 100.68L68.8703 100.562ZM70.3323 104.441C69.4104 103.334 68.8952 101.966 68.8703 100.562L76.9599 100.68C76.9527 100.278 76.8047 99.8846 76.5403 99.5673L70.3323 104.441ZM95.8039 133.493L70.4007 104.521L76.4719 99.4873L101.875 128.459L95.8039 133.493ZM71.3785 143.055L96.6139 127.606L101.065 134.346L75.8297 149.795L71.3785 143.055ZM69.192 145.384C69.6948 144.424 70.4511 143.622 71.3784 143.055L75.8298 149.795C76.0756 149.644 76.2809 149.429 76.4196 149.164L69.192 145.384Z" fill="white" mask="url(#path-2-outside-1_3_34)"/>
<path d="M100.864 155.963C101.229 156.524 102.063 156.8 103.319 156.775C104.575 156.75 106.228 156.424 108.184 155.816C110.14 155.209 112.361 154.331 114.719 153.233C117.078 152.135 119.527 150.839 121.929 149.418C124.331 147.998 126.637 146.481 128.716 144.953C130.795 143.426 132.607 141.919 134.047 140.518C135.488 139.116 136.529 137.848 137.111 136.786C137.693 135.724 138.041 134.809 137.676 134.248L119.152 145.145L100.864 155.963Z" fill="#1B1C31"/>
</svg>
