<svg width="28" height="30" viewBox="0 0 28 30" fill="none" xmlns="http://www.w3.org/2000/svg">
<path d="M17 15H6.99999C6.73477 15 6.48042 15.1054 6.29288 15.2929C6.10535 15.4804 5.99999 15.7348 5.99999 16C5.99999 16.2652 6.10535 16.5196 6.29288 16.7071C6.48042 16.8946 6.73477 17 6.99999 17H17C17.2652 17 17.5196 16.8946 17.7071 16.7071C17.8946 16.5196 18 16.2652 18 16C18 15.7348 17.8946 15.4804 17.7071 15.2929C17.5196 15.1054 17.2652 15 17 15ZM13 19H6.99999C6.73477 19 6.48042 19.1054 6.29288 19.2929C6.10535 19.4804 5.99999 19.7348 5.99999 20C5.99999 20.2652 6.10535 20.5196 6.29288 20.7071C6.48042 20.8946 6.73477 21 6.99999 21H13C13.2652 21 13.5196 20.8946 13.7071 20.7071C13.8946 20.5196 14 20.2652 14 20C14 19.7348 13.8946 19.4804 13.7071 19.2929C13.5196 19.1054 13.2652 19 13 19ZM12 8C10.6868 8 9.38641 8.25866 8.17315 8.7612C6.9599 9.26375 5.85751 10.0003 4.92892 10.9289C3.05356 12.8043 1.99999 15.3478 1.99999 18C1.99125 20.3091 2.79078 22.5485 4.25999 24.33L2.25999 26.33C2.12123 26.4706 2.02723 26.6492 1.98986 26.8432C1.95249 27.0372 1.97341 27.2379 2.04999 27.42C2.13305 27.5999 2.26769 27.7511 2.43683 27.8544C2.60598 27.9577 2.80199 28.0083 2.99999 28H12C14.6522 28 17.1957 26.9464 19.0711 25.0711C20.9464 23.1957 22 20.6522 22 18C22 15.3478 20.9464 12.8043 19.0711 10.9289C17.1957 9.05357 14.6522 8 12 8V8ZM12 26H5.40999L6.33999 25.07C6.52624 24.8826 6.63078 24.6292 6.63078 24.365C6.63078 24.1008 6.52624 23.8474 6.33999 23.66C5.03057 22.352 4.21516 20.6305 4.03268 18.7888C3.8502 16.947 4.31193 15.099 5.33922 13.5595C6.3665 12.02 7.89578 10.8844 9.6665 10.346C11.4372 9.80759 13.3398 9.8998 15.0502 10.6069C16.7606 11.314 18.1728 12.5923 19.0464 14.2239C19.92 15.8555 20.2009 17.7395 19.8411 19.555C19.4814 21.3705 18.5033 23.005 17.0735 24.1802C15.6438 25.3554 13.8508 25.9985 12 26V26Z" fill="black"/>
<circle cx="19.5" cy="8.5" r="7.5" fill="#24FF00" stroke="white" stroke-width="2"/>
</svg>
