<svg width="28" height="30" viewBox="0 0 28 30" fill="none" xmlns="http://www.w3.org/2000/svg">
<path d="M18 19.18V16C17.9986 14.5831 17.4958 13.2125 16.5806 12.1308C15.6655 11.0491 14.3971 10.3261 13 10.09V9C13 8.73478 12.8946 8.48043 12.7071 8.29289C12.5196 8.10536 12.2652 8 12 8C11.7348 8 11.4804 8.10536 11.2929 8.29289C11.1054 8.48043 11 8.73478 11 9V10.09C9.60294 10.3261 8.33452 11.0491 7.41939 12.1308C6.50425 13.2125 6.00144 14.5831 6 16V19.18C5.41645 19.3863 4.911 19.7681 4.55294 20.2729C4.19488 20.7778 4.00174 21.3811 4 22V24C4 24.2652 4.10536 24.5196 4.29289 24.7071C4.48043 24.8946 4.73478 25 5 25H8.14C8.37028 25.8474 8.873 26.5954 9.5706 27.1287C10.2682 27.6621 11.1219 27.951 12 27.951C12.8781 27.951 13.7318 27.6621 14.4294 27.1287C15.127 26.5954 15.6297 25.8474 15.86 25H19C19.2652 25 19.5196 24.8946 19.7071 24.7071C19.8946 24.5196 20 24.2652 20 24V22C19.9983 21.3811 19.8051 20.7778 19.4471 20.2729C19.089 19.7681 18.5835 19.3863 18 19.18ZM8 16C8 14.9391 8.42143 13.9217 9.17157 13.1716C9.92172 12.4214 10.9391 12 12 12C13.0609 12 14.0783 12.4214 14.8284 13.1716C15.5786 13.9217 16 14.9391 16 16V19H8V16ZM12 26C11.651 25.9979 11.3086 25.9045 11.0068 25.7291C10.7051 25.5536 10.4545 25.3023 10.28 25H13.72C13.5455 25.3023 13.2949 25.5536 12.9932 25.7291C12.6914 25.9045 12.349 25.9979 12 26ZM18 23H6V22C6 21.7348 6.10536 21.4804 6.29289 21.2929C6.48043 21.1054 6.73478 21 7 21H17C17.2652 21 17.5196 21.1054 17.7071 21.2929C17.8946 21.4804 18 21.7348 18 22V23Z" fill="black"/>
<circle cx="19.5" cy="8.5" r="7.5" fill="#24FF00" stroke="white" stroke-width="2"/>
</svg>
