<svg width="23" height="23" viewBox="0 0 23 23" fill="none" xmlns="http://www.w3.org/2000/svg">
<rect x="0.0895996" y="0.77832" width="22.1399" height="22.1399" rx="11.0699" fill="url(#paint0_linear_392_3441)"/>
<mask id="mask0_392_3441" style="mask-type:alpha" maskUnits="userSpaceOnUse" x="0" y="0" width="23" height="23">
<rect x="0.0895996" y="0.77832" width="22.1399" height="22.1399" rx="11.0699" fill="white"/>
</mask>
<g mask="url(#mask0_392_3441)">
<g filter="url(#filter0_f_392_3441)">
<rect x="20.7842" y="18.0293" width="12.2999" height="1.41449" rx="0.614997" transform="rotate(-90 20.7842 18.0293)" fill="#C7FF9A"/>
</g>
<g filter="url(#filter1_f_392_3441)">
<rect x="20.7842" y="8.12695" width="2.39849" height="1.41449" rx="0.614997" transform="rotate(-90 20.7842 8.12695)" fill="#C7FF9A"/>
</g>
<g filter="url(#filter2_f_392_3441)">
<rect x="0.120605" y="18.0293" width="12.2999" height="1.41449" rx="0.614997" transform="rotate(-90 0.120605 18.0293)" fill="#C7FF9A"/>
</g>
<g filter="url(#filter3_f_392_3441)">
<rect x="0.120605" y="8.12695" width="2.39849" height="1.41449" rx="0.614997" transform="rotate(-90 0.120605 8.12695)" fill="#C7FF9A"/>
</g>
<g filter="url(#filter4_f_392_3441)">
<rect x="3.28784" y="0.77832" width="15.7439" height="1.78349" rx="0.614997" fill="#C7FF9A"/>
</g>
</g>
<path d="M13.3292 12.3407C13.221 12.3407 13.1078 12.3062 12.9996 12.2816C12.7805 12.2327 12.5652 12.1686 12.3551 12.0898C12.1268 12.0067 11.8759 12.011 11.6507 12.1019C11.4254 12.1927 11.2417 12.3636 11.1349 12.5818L11.0267 12.8081C10.5488 12.5371 10.1074 12.2064 9.71303 11.8241C9.33067 11.4297 9.00002 10.9883 8.72903 10.5105L8.95535 10.4071C9.17348 10.3003 9.34441 10.1166 9.43524 9.89137C9.52607 9.66611 9.53038 9.41522 9.44735 9.18698C9.36921 8.97494 9.30511 8.758 9.25547 8.53754C9.23087 8.4293 9.21119 8.31614 9.19643 8.2079C9.13668 7.86135 8.95516 7.54752 8.68456 7.32292C8.41396 7.09832 8.07206 6.97772 7.72044 6.98283H6.23952C6.03153 6.98256 5.82583 7.02625 5.6359 7.11104C5.44597 7.19583 5.27611 7.3198 5.13745 7.47483C4.99591 7.63406 4.89052 7.82206 4.82853 8.02588C4.76653 8.22971 4.74939 8.44454 4.77829 8.65562C5.04574 10.7034 5.98133 12.6057 7.44 14.0676C8.90189 15.5263 10.8042 16.4619 12.852 16.7293C12.9158 16.7342 12.98 16.7342 13.0438 16.7293C13.4067 16.7298 13.7569 16.5967 14.0278 16.3554C14.1829 16.2167 14.3068 16.0469 14.3916 15.8569C14.4764 15.667 14.5201 15.4613 14.5198 15.2533V13.7773C14.5172 13.4374 14.3973 13.1087 14.1803 12.847C13.9634 12.5852 13.6628 12.4064 13.3292 12.3407ZM13.5703 15.2927C13.5701 15.3613 13.5556 15.4292 13.5276 15.4919C13.4997 15.5546 13.4589 15.6107 13.4079 15.6567C13.354 15.7059 13.2898 15.7424 13.2201 15.7637C13.1503 15.7849 13.0766 15.7904 13.0045 15.7797C11.1685 15.54 9.46223 14.7033 8.14847 13.3985C6.8336 12.0836 5.9896 10.3714 5.74753 8.5277C5.73684 8.45554 5.74233 8.38191 5.7636 8.31213C5.78488 8.24236 5.8214 8.17819 5.87053 8.12426C5.91708 8.07268 5.97403 8.03154 6.03763 8.00356C6.10123 7.97557 6.17004 7.96138 6.23952 7.96191H7.71552C7.82925 7.95913 7.94043 7.99585 8.03013 8.06581C8.11983 8.13578 8.18252 8.23468 8.20751 8.34566C8.20751 8.4785 8.25179 8.61626 8.28131 8.7491C8.33818 9.00684 8.41382 9.26007 8.50763 9.50678L7.81884 9.8315C7.70044 9.88584 7.60844 9.98493 7.563 10.107C7.51379 10.2268 7.51379 10.3611 7.563 10.4809C8.27108 11.9976 9.49027 13.2168 11.007 13.9249C11.1268 13.9741 11.2611 13.9741 11.3809 13.9249C11.503 13.8795 11.6021 13.7875 11.6564 13.6691L11.9664 12.9803C12.2202 13.0728 12.4799 13.1484 12.7437 13.2066C12.8716 13.2361 13.0094 13.2607 13.1422 13.2804C13.2532 13.3054 13.3521 13.3681 13.4221 13.4578C13.4921 13.5475 13.5288 13.6587 13.526 13.7724L13.5703 15.2927ZM10.6675 6.92871C10.5543 6.92871 10.4363 6.92871 10.3231 6.92871C10.1926 6.9398 10.0719 7.00227 9.98746 7.10238C9.90303 7.20249 9.86183 7.33204 9.87292 7.46253C9.88402 7.59301 9.94649 7.71375 10.0466 7.79817C10.1467 7.8826 10.2763 7.9238 10.4067 7.91271H10.6675C11.4504 7.91271 12.2013 8.22372 12.7549 8.77732C13.3085 9.33093 13.6195 10.0818 13.6195 10.8647C13.6195 10.9532 13.6195 11.0369 13.6195 11.1254C13.6086 11.2552 13.6496 11.3841 13.7335 11.4837C13.8174 11.5833 13.9374 11.6455 14.0672 11.6568H14.1066C14.2297 11.6573 14.3486 11.6116 14.4397 11.5287C14.5308 11.4458 14.5875 11.3318 14.5986 11.2091C14.5986 11.0959 14.5986 10.9778 14.5986 10.8647C14.5986 9.82166 14.1846 8.82127 13.4475 8.08327C12.7104 7.34527 11.7105 6.93001 10.6675 6.92871V6.92871ZM11.6515 10.8647C11.6515 10.9952 11.7033 11.1203 11.7956 11.2126C11.8879 11.3049 12.013 11.3567 12.1435 11.3567C12.274 11.3567 12.3991 11.3049 12.4914 11.2126C12.5837 11.1203 12.6355 10.9952 12.6355 10.8647C12.6355 10.3427 12.4281 9.84218 12.0591 9.47311C11.69 9.10404 11.1894 8.8967 10.6675 8.8967C10.537 8.8967 10.4119 8.94854 10.3196 9.0408C10.2273 9.13307 10.1755 9.25821 10.1755 9.3887C10.1755 9.51918 10.2273 9.64432 10.3196 9.73659C10.4119 9.82886 10.537 9.88069 10.6675 9.88069C10.9285 9.88069 11.1788 9.98437 11.3633 10.1689C11.5478 10.3534 11.6515 10.6037 11.6515 10.8647Z" fill="white"/>
<defs>
<filter id="filter0_f_392_3441" x="18.4438" y="3.38906" width="6.09541" height="16.9807" filterUnits="userSpaceOnUse" color-interpolation-filters="sRGB">
<feFlood flood-opacity="0" result="BackgroundImageFix"/>
<feBlend mode="normal" in="SourceGraphic" in2="BackgroundImageFix" result="shape"/>
<feGaussianBlur stdDeviation="1.17021" result="effect1_foregroundBlur_392_3441"/>
</filter>
<filter id="filter1_f_392_3441" x="18.4438" y="3.38809" width="6.09541" height="7.07929" filterUnits="userSpaceOnUse" color-interpolation-filters="sRGB">
<feFlood flood-opacity="0" result="BackgroundImageFix"/>
<feBlend mode="normal" in="SourceGraphic" in2="BackgroundImageFix" result="shape"/>
<feGaussianBlur stdDeviation="1.17021" result="effect1_foregroundBlur_392_3441"/>
</filter>
<filter id="filter2_f_392_3441" x="-2.21982" y="3.38906" width="6.09541" height="16.9807" filterUnits="userSpaceOnUse" color-interpolation-filters="sRGB">
<feFlood flood-opacity="0" result="BackgroundImageFix"/>
<feBlend mode="normal" in="SourceGraphic" in2="BackgroundImageFix" result="shape"/>
<feGaussianBlur stdDeviation="1.17021" result="effect1_foregroundBlur_392_3441"/>
</filter>
<filter id="filter3_f_392_3441" x="-2.21982" y="3.38809" width="6.09541" height="7.07929" filterUnits="userSpaceOnUse" color-interpolation-filters="sRGB">
<feFlood flood-opacity="0" result="BackgroundImageFix"/>
<feBlend mode="normal" in="SourceGraphic" in2="BackgroundImageFix" result="shape"/>
<feGaussianBlur stdDeviation="1.17021" result="effect1_foregroundBlur_392_3441"/>
</filter>
<filter id="filter4_f_392_3441" x="0.947413" y="-1.56211" width="20.4248" height="6.46406" filterUnits="userSpaceOnUse" color-interpolation-filters="sRGB">
<feFlood flood-opacity="0" result="BackgroundImageFix"/>
<feBlend mode="normal" in="SourceGraphic" in2="BackgroundImageFix" result="shape"/>
<feGaussianBlur stdDeviation="1.17021" result="effect1_foregroundBlur_392_3441"/>
</filter>
<linearGradient id="paint0_linear_392_3441" x1="0.0895996" y1="0.77832" x2="0.0895996" y2="22.9182" gradientUnits="userSpaceOnUse">
<stop stop-color="#FF0000"/>
<stop offset="1" stop-color="#FFDD55"/>
</linearGradient>
</defs>
</svg>
