<svg width="24" height="24" viewBox="0 0 24 24" fill="none" xmlns="http://www.w3.org/2000/svg">
<rect width="24" height="24" rx="8.61111" fill="url(#paint0_linear_210_691)"/>
<mask id="mask0_210_691" style="mask-type:alpha" maskUnits="userSpaceOnUse" x="0" y="0" width="24" height="24">
<rect width="24" height="24" rx="8.61111" fill="white"/>
</mask>
<g mask="url(#mask0_210_691)">
<g filter="url(#filter0_f_210_691)">
<rect x="21.8999" y="18.7" width="13.3333" height="1.53333" rx="0.766667" transform="rotate(-90 21.8999 18.7)" fill="#FFDD55"/>
</g>
<g filter="url(#filter1_f_210_691)">
<rect x="21.8999" y="7.96666" width="2.6" height="1.53333" rx="0.766667" transform="rotate(-90 21.8999 7.96666)" fill="#FFDD55"/>
</g>
<g filter="url(#filter2_f_210_691)">
<rect x="0.56665" y="18.7" width="13.3333" height="1.53333" rx="0.766667" transform="rotate(-90 0.56665 18.7)" fill="#FFDD55"/>
</g>
<g filter="url(#filter3_f_210_691)">
<rect x="0.56665" y="7.96666" width="2.6" height="1.53333" rx="0.766667" transform="rotate(-90 0.56665 7.96666)" fill="#FFDD55"/>
</g>
<g filter="url(#filter4_f_210_691)">
<rect x="3.46667" y="1.46666" width="17.0667" height="1.93333" rx="0.861111" fill="#FFDD55"/>
</g>
</g>
<g filter="url(#filter5_d_210_691)">
<path fill-rule="evenodd" clip-rule="evenodd" d="M7.82052 6C8.00804 6 8.16992 6.12608 8.21752 6.30343L8.22594 6.3422L8.62502 8.72994L16.5889 8.73014C16.8259 8.73014 17.0108 8.92824 16.9995 9.15887L16.9958 9.19758L16.4478 13.0198C16.444 13.0463 16.4376 13.0724 16.4286 13.0977C16.1337 13.9333 15.3346 14.4824 14.473 14.4663L14.3968 14.4634L10.5839 14.4628C9.67024 14.5144 8.8324 13.9579 8.52882 13.0977L8.51849 13.0638L8.51114 13.0292L7.47237 6.81904H7.41102C7.19737 6.81904 7.0218 6.65663 7.00188 6.44896L7 6.40952C7 6.19665 7.16301 6.02172 7.37143 6.00187L7.41102 6H7.82052ZM8.79993 16.5C8.79993 15.6716 9.47482 15 10.3073 15C11.1399 15 11.8147 15.6716 11.8147 16.5C11.8147 17.3284 11.1399 18 10.3073 18C9.47482 18 8.79993 17.3284 8.79993 16.5ZM10.9926 16.5C10.9926 16.1234 10.6858 15.8182 10.3074 15.8182C9.92896 15.8182 9.62219 16.1234 9.62219 16.5C9.62219 16.8766 9.92896 17.1818 10.3074 17.1818C10.6858 17.1818 10.9926 16.8766 10.9926 16.5ZM14.6925 15C13.8599 15 13.1851 15.6716 13.1851 16.5C13.1851 17.3284 13.8599 18 14.6925 18C15.525 18 16.1999 17.3284 16.1999 16.5C16.1999 15.6716 15.525 15 14.6925 15ZM14.6926 15.8182C15.071 15.8182 15.3778 16.1234 15.3778 16.5C15.3778 16.8766 15.071 17.1818 14.6926 17.1818C14.3142 17.1818 14.0074 16.8766 14.0074 16.5C14.0074 16.1234 14.3142 15.8182 14.6926 15.8182Z" fill="url(#paint1_linear_210_691)"/>
</g>
<defs>
<filter id="filter0_f_210_691" x="18.6229" y="2.08963" width="8.0874" height="19.8874" filterUnits="userSpaceOnUse" color-interpolation-filters="sRGB">
<feFlood flood-opacity="0" result="BackgroundImageFix"/>
<feBlend mode="normal" in="SourceGraphic" in2="BackgroundImageFix" result="shape"/>
<feGaussianBlur stdDeviation="1.63852" result="effect1_foregroundBlur_210_691"/>
</filter>
<filter id="filter1_f_210_691" x="18.6229" y="2.08961" width="8.0874" height="9.15409" filterUnits="userSpaceOnUse" color-interpolation-filters="sRGB">
<feFlood flood-opacity="0" result="BackgroundImageFix"/>
<feBlend mode="normal" in="SourceGraphic" in2="BackgroundImageFix" result="shape"/>
<feGaussianBlur stdDeviation="1.63852" result="effect1_foregroundBlur_210_691"/>
</filter>
<filter id="filter2_f_210_691" x="-2.71039" y="2.08963" width="8.0874" height="19.8874" filterUnits="userSpaceOnUse" color-interpolation-filters="sRGB">
<feFlood flood-opacity="0" result="BackgroundImageFix"/>
<feBlend mode="normal" in="SourceGraphic" in2="BackgroundImageFix" result="shape"/>
<feGaussianBlur stdDeviation="1.63852" result="effect1_foregroundBlur_210_691"/>
</filter>
<filter id="filter3_f_210_691" x="-2.71039" y="2.08961" width="8.0874" height="9.15409" filterUnits="userSpaceOnUse" color-interpolation-filters="sRGB">
<feFlood flood-opacity="0" result="BackgroundImageFix"/>
<feBlend mode="normal" in="SourceGraphic" in2="BackgroundImageFix" result="shape"/>
<feGaussianBlur stdDeviation="1.63852" result="effect1_foregroundBlur_210_691"/>
</filter>
<filter id="filter4_f_210_691" x="0.189635" y="-1.81038" width="23.6207" height="8.48741" filterUnits="userSpaceOnUse" color-interpolation-filters="sRGB">
<feFlood flood-opacity="0" result="BackgroundImageFix"/>
<feBlend mode="normal" in="SourceGraphic" in2="BackgroundImageFix" result="shape"/>
<feGaussianBlur stdDeviation="1.63852" result="effect1_foregroundBlur_210_691"/>
</filter>
<filter id="filter5_d_210_691" x="6.48333" y="6" width="11.0333" height="13.2917" filterUnits="userSpaceOnUse" color-interpolation-filters="sRGB">
<feFlood flood-opacity="0" result="BackgroundImageFix"/>
<feColorMatrix in="SourceAlpha" type="matrix" values="0 0 0 0 0 0 0 0 0 0 0 0 0 0 0 0 0 0 127 0" result="hardAlpha"/>
<feOffset dy="0.775"/>
<feGaussianBlur stdDeviation="0.258333"/>
<feColorMatrix type="matrix" values="0 0 0 0 0 0 0 0 0 0 0 0 0 0 0 0 0 0 0.0693564 0"/>
<feBlend mode="normal" in2="BackgroundImageFix" result="effect1_dropShadow_210_691"/>
<feBlend mode="normal" in="SourceGraphic" in2="effect1_dropShadow_210_691" result="shape"/>
</filter>
<linearGradient id="paint0_linear_210_691" x1="0" y1="0" x2="0" y2="24" gradientUnits="userSpaceOnUse">
<stop stop-color="#FF0C0C"/>
<stop offset="1" stop-color="#FFDD55"/>
</linearGradient>
<linearGradient id="paint1_linear_210_691" x1="9.30755" y1="15" x2="9.30755" y2="26.8" gradientUnits="userSpaceOnUse">
<stop offset="0.000792177" stop-color="#F6FFF7"/>
<stop offset="0.740467" stop-color="#E6FFE8"/>
<stop offset="1" stop-color="#C5FFC8"/>
</linearGradient>
</defs>
</svg>
