<svg width="41" height="40" viewBox="0 0 41 40" fill="none" xmlns="http://www.w3.org/2000/svg">
<circle cx="20.4" cy="20" r="20" fill="white"/>
<path fill-rule="evenodd" clip-rule="evenodd" d="M31.3333 13.7556C30.5467 14.0978 29.7059 14.329 28.8198 14.4356C29.724 13.9023 30.4201 13.0578 30.7456 12.0534C29.9003 12.5467 28.9645 12.9067 27.9654 13.0978C27.1652 12.2578 26.026 11.7334 24.7692 11.7334C22.3506 11.7334 20.3932 13.6623 20.3932 16.0401C20.3932 16.3778 20.4293 16.7067 20.5062 17.0223C16.867 16.8445 13.6392 15.129 11.4828 12.5201C11.1076 13.1556 10.8906 13.8978 10.8906 14.6845C10.8906 16.1778 11.6682 17.4978 12.8435 18.2712C12.1202 18.2534 11.4421 18.0578 10.8544 17.7334C10.8544 17.7512 10.8544 17.769 10.8544 17.7867C10.8544 19.8756 12.3643 21.6134 14.367 22.009C14.0008 22.1067 13.6121 22.1601 13.2142 22.1601C12.934 22.1601 12.6582 22.1334 12.3915 22.0801C12.9475 23.7912 14.5659 25.0356 16.4827 25.0712C14.9864 26.2267 13.0967 26.9156 11.0443 26.9156C10.6917 26.9156 10.3436 26.8934 10 26.8534C11.9304 28.089 14.2314 28.8001 16.6997 28.8001C24.7602 28.8001 29.1634 22.2356 29.1634 16.5423C29.1634 16.3556 29.1589 16.169 29.1498 15.9867C30.0042 15.3778 30.7456 14.6223 31.3333 13.7556Z" fill="#24FF00"/>
</svg>
