<svg width="28" height="30" viewBox="0 0 28 30" fill="none" xmlns="http://www.w3.org/2000/svg">
<path fill-rule="evenodd" clip-rule="evenodd" d="M4.95063 8.48103C5.72857 8.15801 6.56261 7.99173 7.40494 7.99173C8.24727 7.99173 9.08132 8.15801 9.85925 8.48103C10.6372 8.80405 11.3437 9.27746 11.9383 9.87411L11.9416 9.87745L11.9999 9.93656L12.0583 9.87746L12.0616 9.87411C12.6562 9.27746 13.3627 8.80405 14.1406 8.48103C14.9186 8.15801 15.7526 7.99173 16.5949 7.99173C17.4373 7.99173 18.2713 8.15801 19.0492 8.48103C19.8269 8.80394 20.5332 9.27713 21.1277 9.8735C23.6727 12.4192 23.7293 16.6283 20.7136 19.7005L20.7071 19.7071L12.707 27.7071C12.5195 27.8946 12.2652 28 11.9999 28C11.7347 28 11.4804 27.8946 11.2928 27.7071L3.28627 19.7005C0.270576 16.6284 0.327197 12.4192 2.87223 9.87349C3.46668 9.27713 4.17297 8.80394 4.95063 8.48103ZM7.40494 9.99173C6.82584 9.99173 6.25243 10.106 5.71761 10.3281C5.18278 10.5502 4.69705 10.8757 4.28827 11.2859L4.28705 11.2871C2.59343 12.9807 2.3897 15.9292 4.71046 18.2963L11.9999 25.5858L19.2894 18.2963C21.6102 15.9293 21.4065 12.9807 19.7128 11.2871L19.7116 11.2859C19.3028 10.8757 18.8171 10.5502 18.2823 10.3281C17.7474 10.106 17.174 9.99173 16.5949 9.99173C16.0158 9.99173 15.4424 10.106 14.9076 10.3281C14.3735 10.5499 13.8883 10.8748 13.4799 11.2842C13.4794 11.2848 13.4788 11.2853 13.4783 11.2859L12.7116 12.0625C12.5237 12.2529 12.2674 12.36 11.9999 12.36C11.7325 12.36 11.4762 12.2529 11.2883 12.0625L10.5216 11.2859C10.5211 11.2853 10.5205 11.2848 10.52 11.2842C10.1116 10.8748 9.6264 10.5499 9.09228 10.3281C8.55745 10.106 7.98404 9.99173 7.40494 9.99173Z" fill="#2F294D"/>
<circle cx="19.5" cy="8.5" r="7.5" fill="#24FF00" stroke="white" stroke-width="2"/>
</svg>
